<?xml version="1.0" standalone="no"?>

<svg version="1.0" xmlns="http://www.w3.org/2000/svg"
 viewBox="0 0 300.000000 300.000000"
 preserveAspectRatio="xMidYMid meet">

<g transform="translate(0.000000,300.000000) scale(0.100000,-0.100000)"
fill="#000000" stroke="none">
<path d="M1043 2885 c-46 -20 -56 -46 -51 -133 6 -89 20 -106 98 -117 102 -14
180 19 180 76 0 29 0 29 -59 29 l-59 0 2 -32 c1 -27 -3 -34 -21 -36 -22 -3
-23 -1 -23 93 0 94 1 96 23 93 18 -2 22 -9 22 -36 l0 -34 58 -1 c56 -2 57 -2
57 26 0 41 -15 63 -51 76 -44 15 -137 13 -176 -4z m40 -48 c14 13 6 -13 -10
-36 -9 -14 -12 -21 -6 -18 6 4 13 -4 16 -18 2 -14 0 -28 -4 -31 -5 -3 -4 -14
2 -26 6 -12 7 -18 1 -14 -5 3 -13 -1 -16 -10 -6 -15 -8 -15 -26 1 -14 13 -17
22 -10 29 15 15 12 26 -6 26 -14 0 -15 2 -3 17 12 14 12 15 1 9 -11 -7 -12 -4
-3 13 7 12 9 26 5 32 -9 15 28 40 42 28 6 -5 14 -6 17 -2z m140 -13 c-6 -16
-23 -19 -23 -3 0 5 -4 7 -10 4 -5 -3 -7 0 -4 8 3 9 13 13 24 10 11 -3 16 -11
13 -19z m-1 -121 c-6 -2 -9 -10 -5 -16 4 -7 -2 -5 -12 3 -10 8 -16 10 -12 3 4
-6 4 -14 -1 -17 -4 -2 -9 4 -9 15 -1 15 4 19 25 18 15 0 21 -3 14 -6z"/>
<path d="M1407 2889 c-30 -12 -43 -44 -33 -83 5 -19 21 -30 76 -51 44 -17 71
-33 75 -46 8 -25 -1 -39 -26 -39 -14 0 -19 7 -19 30 0 30 -1 30 -55 30 -49 0
-55 -2 -55 -21 0 -53 48 -80 140 -78 100 1 148 44 119 104 -11 22 -29 34 -78
51 -66 24 -83 37 -74 61 8 21 43 16 43 -7 0 -18 7 -20 55 -20 61 0 69 11 36
51 -17 21 -29 24 -98 26 -43 1 -90 -2 -106 -8z m29 -52 c-4 9 -2 11 7 7 12 -4
14 -20 8 -56 0 -5 -6 -8 -12 -8 -5 0 -8 4 -4 9 3 5 -4 12 -15 16 -20 6 -26 25
-13 38 3 4 13 1 21 -6 13 -9 14 -9 8 0z m69 -67 c4 -6 11 -8 16 -4 13 7 41
-15 33 -27 -3 -5 2 -9 10 -9 10 0 13 6 9 17 -6 15 -5 16 9 3 9 -8 14 -17 12
-19 -2 -2 0 -9 5 -15 6 -7 0 -18 -17 -31 -22 -15 -24 -16 -13 -2 12 15 12 17
-3 11 -12 -4 -16 0 -16 15 0 12 -6 21 -12 21 -9 0 -8 4 2 10 12 8 11 10 -7 10
-12 0 -25 5 -28 10 -4 6 -11 8 -16 5 -5 -4 -9 -1 -9 4 0 14 17 14 25 1z"/>
<path d="M1770 2882 c-26 -12 -36 -25 -38 -45 -5 -38 19 -63 82 -83 64 -21 78
-32 74 -58 -5 -33 -42 -28 -46 7 -3 26 -6 27 -58 27 -45 0 -54 -3 -54 -18 0
-55 75 -89 170 -78 69 8 100 28 100 64 0 44 -25 69 -95 92 -56 19 -65 25 -65
46 0 17 6 24 20 24 13 0 20 -7 20 -20 0 -18 7 -20 55 -20 46 0 55 3 55 18 0 9
-4 22 -8 29 -22 35 -153 45 -212 15z m35 -42 c-3 -5 -2 -10 3 -10 6 0 9 -11 8
-25 -1 -30 0 -30 -31 -3 l-25 22 22 13 c28 15 31 16 23 3z m84 -84 c1 15 31
13 31 -2 0 -7 -5 -16 -12 -20 -7 -5 -8 -3 -4 5 6 8 2 11 -10 9 -12 -2 -19 4
-21 17 -3 20 -3 20 6 0 5 -11 10 -15 10 -9z m65 -18 c-3 -5 0 -15 6 -23 10
-11 10 -15 1 -15 -7 0 -10 -4 -6 -9 3 -5 0 -13 -6 -17 -7 -4 -9 -3 -5 4 3 6
-3 13 -14 17 -24 8 -26 21 -4 29 8 3 13 10 10 14 -3 5 1 9 9 9 8 0 12 -4 9 -9z"/>
<path d="M1133 2765 c0 -27 2 -38 4 -22 2 15 2 37 0 50 -2 12 -4 0 -4 -28z"/>
<path d="M582 2548 c-7 -7 -12 -23 -12 -37 0 -20 3 -23 9 -11 6 8 8 17 5 21
-7 11 25 32 41 26 8 -4 17 -2 20 3 9 14 -49 12 -63 -2z"/>
<path d="M803 2553 c15 -2 37 -2 50 0 12 2 0 4 -28 4 -27 0 -38 -2 -22 -4z"/>
<path d="M1035 2550 c5 -8 65 -3 74 5 2 2 -15 4 -38 3 -22 0 -39 -4 -36 -8z"/>
<path d="M1293 2548 c-2 -5 25 -8 61 -8 36 0 66 4 66 8 0 10 -120 10 -127 0z"/>
<path d="M1550 2548 c0 -4 14 -8 30 -8 17 0 30 5 30 10 0 6 -13 9 -30 8 -16
-1 -30 -6 -30 -10z"/>
<path d="M1620 2549 c0 -3 14 -6 30 -7 17 0 30 4 30 9 0 5 -13 8 -30 7 -16 -1
-30 -5 -30 -9z"/>
<path d="M1810 2552 c0 -4 14 -8 30 -7 17 0 30 3 30 7 0 5 -13 8 -30 8 -16 0
-30 -4 -30 -8z"/>
<path d="M1880 2552 c0 -9 47 -8 57 1 3 4 -8 7 -25 7 -18 0 -32 -4 -32 -8z"/>
<path d="M2140 2556 c0 -2 14 -6 30 -8 17 -3 30 -1 30 4 0 4 -13 8 -30 8 -16
0 -30 -2 -30 -4z"/>
<path d="M2332 2554 c4 -3 19 -6 35 -8 40 -3 51 -12 45 -41 -2 -15 0 -25 7
-25 15 0 14 53 -1 68 -7 7 -30 12 -52 12 -21 0 -37 -3 -34 -6z"/>
<path d="M613 2483 c4 -21 15 -150 27 -288 11 -137 27 -326 36 -420 18 -199
31 -360 39 -465 4 -41 15 -172 25 -290 22 -241 50 -570 50 -582 0 -4 160 -88
355 -185 l355 -178 355 178 c284 141 355 181 355 196 0 21 28 361 35 426 4 42
21 240 31 360 3 39 11 140 19 225 8 85 22 243 30 350 8 107 20 240 25 295 5
55 14 159 20 230 6 72 13 142 16 158 l6 27 -892 0 -893 0 6 -37z m364 3 c7 -3
15 -1 18 4 3 5 15 6 28 1 13 -5 32 -4 45 2 17 8 29 8 44 -2 11 -7 17 -8 13 -2
-4 7 10 11 40 11 34 0 44 -3 39 -12 -6 -10 -5 -10 7 -1 21 17 1080 15 1091 -1
5 -7 8 -7 8 2 0 6 6 12 14 12 16 0 31 -34 21 -50 -3 -5 -2 -10 2 -10 5 0 9 -9
10 -20 1 -16 -4 -20 -28 -20 -16 0 -29 -4 -29 -9 0 -5 9 -7 20 -4 19 5 20 2
15 -93 -3 -55 -8 -121 -10 -149 -3 -27 -6 -69 -8 -92 -2 -23 -5 -45 -8 -48 -3
-2 -4 -27 -3 -55 2 -27 0 -50 -4 -50 -4 0 -7 -26 -7 -57 0 -66 -20 -336 -30
-399 -2 -11 -6 -72 -10 -135 -4 -63 -10 -118 -12 -122 -3 -5 -7 -38 -9 -75 -2
-37 -5 -80 -8 -97 -3 -16 -8 -84 -11 -150 -4 -66 -9 -122 -13 -125 -4 -3 -7
-27 -6 -55 0 -27 -4 -58 -9 -69 -6 -13 -6 -16 2 -12 8 5 8 0 3 -16 -5 -13 -10
-45 -11 -73 -2 -27 -10 -58 -18 -67 -15 -17 -136 -80 -163 -84 -8 -2 -16 -8
-18 -13 -2 -6 -12 -11 -23 -11 -10 0 -19 -5 -19 -11 0 -6 -5 -9 -12 -7 -7 3
-28 -6 -47 -19 -18 -13 -41 -23 -49 -23 -8 0 -21 -8 -29 -17 -10 -12 -12 -13
-8 -3 4 10 2 9 -8 -2 -8 -10 -21 -18 -29 -18 -9 0 -27 -9 -42 -21 -14 -11 -26
-18 -26 -14 0 3 -13 -1 -30 -10 -16 -9 -30 -13 -30 -11 0 3 -12 -6 -26 -19
-15 -14 -30 -22 -35 -19 -5 3 -9 0 -9 -6 0 -6 -4 -9 -9 -5 -5 3 -12 1 -16 -4
-8 -14 -75 -7 -84 8 -5 7 -11 12 -15 11 -12 -4 -66 22 -61 29 2 4 -1 8 -8 8
-17 1 -41 7 -47 13 -3 3 -22 13 -43 23 -21 9 -35 22 -32 27 3 6 -1 7 -10 4 -8
-4 -27 1 -41 11 -14 9 -34 18 -45 20 -11 2 -26 11 -35 19 -8 9 -20 16 -26 16
-14 0 -222 103 -226 113 -2 4 -10 7 -17 7 -18 0 -24 20 -30 100 -3 38 -8 79
-11 92 -3 13 -7 59 -10 103 -4 73 -10 129 -21 195 -5 30 -10 132 -12 220 -1
46 -4 61 -11 50 -7 -11 -10 -2 -10 31 0 25 -7 117 -16 205 -8 87 -17 194 -19
237 -2 42 -6 81 -8 85 -3 4 -5 40 -6 81 -1 40 -4 78 -8 84 -3 5 -2 7 3 4 6 -3
11 4 11 16 2 17 0 19 -7 7 -13 -20 -13 2 0 35 7 17 7 24 0 20 -6 -3 -10 0 -11
7 0 7 -2 31 -3 53 -2 22 1 46 8 54 8 11 8 13 -1 8 -12 -7 -27 111 -28 220 0
29 -4 53 -8 53 -5 0 -5 5 -1 12 5 7 7 25 6 40 -2 24 1 28 25 29 78 2 166 9
170 12 5 5 113 -1 130 -7z"/>
<path d="M2043 2383 c10 -9 56 -10 51 -1 -3 4 -17 8 -31 8 -15 0 -23 -3 -20
-7z"/>
<path d="M2116 2375 c5 -11 -4 -14 -42 -13 -27 0 -56 5 -65 11 -12 8 -39 6
-96 -5 l-78 -16 207 -1 c114 -1 209 2 211 7 3 4 -24 5 -60 4 -57 -3 -65 -2
-60 12 4 10 1 16 -8 16 -9 0 -12 -6 -9 -15z"/>
<path d="M1500 2317 c0 -5 12 -6 27 -2 24 6 25 5 12 -12 -13 -17 -13 -17 7 -1
14 12 24 15 32 8 9 -7 9 -7 2 2 -12 15 -80 19 -80 5z"/>
<path d="M1603 2323 c15 -4 16 -7 5 -21 -11 -15 -11 -15 3 -5 9 7 20 9 24 5 5
-4 5 -2 1 5 -4 8 6 13 31 16 24 2 16 4 -22 4 -33 0 -52 -1 -42 -4z"/>
<path d="M1482 2280 c0 -19 2 -27 5 -17 2 9 2 25 0 35 -3 9 -5 1 -5 -18z"/>
<path d="M2256 2263 c-3 -27 -15 -163 -26 -304 -18 -238 -44 -530 -55 -624 -2
-22 -7 -80 -10 -130 -3 -49 -10 -137 -16 -195 -5 -58 -16 -184 -25 -280 -8
-96 -16 -175 -17 -176 -1 -1 -134 -68 -294 -148 -262 -132 -307 -159 -288
-178 5 -4 588 281 600 294 4 4 12 63 20 163 3 39 8 93 11 120 8 86 34 404 44
535 11 138 54 635 70 800 12 130 13 170 1 170 -4 0 -11 -21 -15 -47z"/>
<path d="M1460 2199 c-22 -18 -22 -21 -5 -17 16 2 21 -4 26 -37 6 -37 6 -36 8
18 0 31 0 57 -1 57 -2 -1 -14 -10 -28 -21z"/>
<path d="M1498 2093 l-537 -3 3 -28 c2 -15 4 -73 5 -129 1 -87 3 -101 16 -97
15 6 15 66 -1 187 l-4 37 530 0 c523 0 530 0 530 20 0 11 -1 19 -2 18 -2 -2
-245 -4 -540 -5z"/>
<path d="M2055 2060 c-4 -6 -10 -79 -15 -163 -5 -83 -16 -240 -24 -347 -19
-242 -32 -436 -47 -695 -7 -117 -16 -205 -23 -211 -6 -6 -54 -26 -106 -44 -52
-18 -149 -52 -215 -75 l-120 -42 -3 -107 c-2 -75 1 -106 8 -101 6 4 11 38 11
78 0 40 0 79 0 89 0 10 16 21 45 29 24 7 44 17 44 21 0 4 3 7 8 7 4 -1 9 0 12
1 3 1 12 3 21 5 13 2 105 33 159 53 8 3 18 4 23 4 4 -1 7 2 7 7 0 6 9 8 20 6
11 -2 18 -1 16 3 -3 4 17 15 43 25 59 21 68 39 67 139 -1 43 1 78 5 78 3 0 5
17 6 38 1 65 13 266 18 287 2 11 5 57 6 103 1 45 6 82 10 82 5 0 6 7 3 15 -5
12 7 239 21 390 8 92 17 335 12 335 -3 0 -9 -5 -12 -10z"/>
<path d="M1000 1820 c-10 -6 -11 -10 -2 -10 6 0 12 -7 12 -15 0 -13 4 -14 20
-5 24 13 424 10 437 -3 4 -5 11 -50 14 -100 l5 -92 2 118 2 117 -237 0 c-137
0 -244 -4 -253 -10z"/>
<path d="M1500 1804 c0 -22 3 -24 14 -15 14 12 261 12 296 1 9 -3 16 3 18 18
l3 22 -165 0 -166 0 0 -26z"/>
<path d="M1839 1798 c-2 -7 -6 -49 -13 -130 l-8 -88 -415 0 -414 0 7 -117 c4
-65 7 -124 7 -130 0 -7 7 -13 15 -13 10 0 12 9 8 38 -3 20 -8 72 -11 115 l-7
77 415 0 414 0 6 58 c19 179 19 192 8 192 -6 0 -11 -1 -12 -2z"/>
<path d="M1020 1295 c19 -11 72 -14 238 -15 116 0 213 -1 214 -2 1 -2 5 -111
8 -243 l6 -240 3 255 c2 140 5 247 8 237 2 -9 9 -15 14 -11 19 11 222 6 229
-6 4 -7 11 -12 16 -13 10 -2 9 -10 -6 -211 -6 -71 -10 -138 -10 -150 0 -16
-14 -27 -58 -45 -31 -13 -83 -35 -114 -49 l-57 -24 -73 25 c-118 41 -138 51
-139 67 0 8 -2 22 -3 30 -2 8 -7 47 -11 85 -4 39 -13 81 -20 95 -13 25 -14 25
-125 22 l-112 -3 9 -162 c4 -89 8 -190 8 -224 0 -38 4 -62 10 -60 12 4 13 81
3 275 l-8 142 94 0 c82 0 95 2 98 18 2 9 8 -34 12 -95 4 -62 12 -115 17 -119
5 -3 9 -13 9 -22 0 -12 31 -28 114 -59 63 -24 121 -43 129 -43 11 0 223 85
234 94 5 4 12 71 17 171 4 61 9 145 12 188 5 68 4 77 -11 77 -11 0 -15 5 -11
15 5 13 -42 15 -382 15 -341 -1 -384 -2 -362 -15z"/>
<path d="M1500 833 c0 -18 2 -33 4 -33 9 0 13 39 5 51 -6 10 -9 4 -9 -18z"/>
<path d="M1069 621 c14 -10 38 -23 55 -29 108 -35 232 -84 234 -93 2 -5 8 -6
13 -3 6 3 15 1 22 -4 7 -6 21 -12 32 -14 44 -7 54 -29 58 -128 l3 -95 2 115 2
116 -37 13 c-21 8 -113 42 -205 77 -174 67 -223 79 -179 45z"/>
<path d="M2413 2430 c0 -25 2 -35 4 -22 2 12 2 32 0 45 -2 12 -4 2 -4 -23z"/>
<path d="M588 2300 c2 -27 7 -50 10 -50 4 0 5 22 4 50 -2 27 -7 50 -10 50 -4
0 -5 -22 -4 -50z"/>
<path d="M2398 2300 c-1 -28 0 -50 4 -50 3 0 8 23 10 50 1 28 0 50 -4 50 -3 0
-8 -23 -10 -50z"/>
<path d="M598 2203 c6 -65 10 -70 11 -15 0 28 -3 52 -7 52 -4 0 -6 -17 -4 -37z"/>
<path d="M2393 2190 c0 -30 2 -43 4 -27 2 15 2 39 0 55 -2 15 -4 2 -4 -28z"/>
<path d="M616 2045 c9 -155 31 -372 33 -332 1 46 -28 398 -35 412 -2 6 -2 -30
2 -80z"/>
<path d="M2372 1997 c-8 -76 -12 -141 -9 -143 7 -7 29 217 25 251 -2 17 -9
-32 -16 -108z"/>
<path d="M2356 1818 c-3 -13 -5 -45 -5 -73 2 -47 2 -45 10 20 8 71 6 93 -5 53z"/>
<path d="M653 1625 c0 -27 2 -38 4 -22 2 15 2 37 0 50 -2 12 -4 0 -4 -28z"/>
<path d="M2343 1625 c0 -22 2 -30 4 -17 2 12 2 30 0 40 -3 9 -5 -1 -4 -23z"/>
<path d="M2337 1566 c-4 -10 -5 -21 -2 -24 9 -9 17 6 13 25 -3 17 -4 17 -11
-1z"/>
<path d="M2325 1448 c-3 -46 -10 -119 -15 -163 -14 -126 -23 -281 -16 -274 3
3 8 46 11 95 3 49 10 127 15 174 15 136 22 250 17 250 -3 0 -8 -37 -12 -82z"/>
<path d="M662 1490 c0 -19 2 -27 5 -17 2 9 2 25 0 35 -3 9 -5 1 -5 -18z"/>
<path d="M666 1393 c4 -32 11 -78 15 -103 7 -39 8 -36 4 19 -3 35 -5 81 -5
102 0 22 -5 39 -10 39 -6 0 -8 -21 -4 -57z"/>
<path d="M693 1142 c3 -57 8 -107 12 -110 3 -4 3 41 -1 98 -4 58 -9 107 -12
110 -2 3 -2 -42 1 -98z"/>
<path d="M2275 855 c-4 -42 -5 -79 -2 -81 3 -3 8 29 12 71 4 42 5 78 2 81 -2
3 -8 -29 -12 -71z"/>
<path d="M717 825 c3 -27 7 -52 9 -54 8 -9 2 65 -6 84 -6 13 -7 2 -3 -30z"/>
<path d="M732 690 c0 -25 3 -70 8 -100 6 -47 7 -49 8 -15 0 22 -4 67 -8 100
-6 55 -7 56 -8 15z"/>
<path d="M2255 640 c-4 -50 -5 -93 -2 -96 3 -3 8 36 12 86 4 50 5 93 2 96 -3
3 -8 -36 -12 -86z"/>
<path d="M751 478 c0 -25 2 -54 5 -63 6 -15 402 -221 410 -213 2 2 -82 46
-187 98 -105 52 -196 101 -202 109 -6 7 -15 37 -18 65 l-6 51 -2 -47z"/>
<path d="M2240 473 c0 -53 -5 -64 -35 -81 -11 -6 -14 -12 -7 -12 29 0 52 39
52 90 0 28 -2 50 -5 50 -3 0 -5 -21 -5 -47z"/>
<path d="M1990 285 c-102 -52 -182 -94 -177 -94 10 -1 367 178 367 184 0 7 14
13 -190 -90z"/>
<path d="M1710 145 c-25 -13 -41 -24 -37 -25 11 0 87 39 87 45 0 7 0 7 -50
-20z"/>
<path d="M1420 75 c0 -2 18 -14 40 -25 37 -19 42 -19 70 -5 17 9 30 18 30 21
0 2 -14 -3 -30 -11 -29 -15 -33 -15 -64 4 -33 21 -46 25 -46 16z"/>
</g>
</svg>
