<?xml version="1.0" standalone="no"?>

<svg version="1.0" xmlns="http://www.w3.org/2000/svg"
 viewBox="0 0 225.000000 225.000000"
 preserveAspectRatio="xMidYMid meet">

<g transform="translate(0.000000,225.000000) scale(0.100000,-0.100000)"
fill="#000000" stroke="none">
<path d="M60 2141 c0 -6 4 -13 10 -16 6 -3 7 1 4 9 -7 18 -14 21 -14 7z"/>
<path d="M26 2105 c-3 -8 -1 -15 4 -15 6 0 10 7 10 15 0 8 -2 15 -4 15 -2 0
-6 -7 -10 -15z"/>
<path d="M160 2101 c0 -5 7 -11 15 -15 8 -3 15 -1 15 3 0 5 -7 11 -15 15 -8 3
-15 1 -15 -3z"/>
<path d="M190 2051 c0 -5 5 -13 10 -16 6 -3 10 -2 10 4 0 5 -4 13 -10 16 -5 3
-10 2 -10 -4z"/>
<path d="M211 2004 c0 -12 6 -35 14 -50 8 -16 15 -22 15 -13 0 8 -4 19 -9 25
-5 5 -11 20 -14 34 -4 21 -4 22 -6 4z"/>
<path d="M950 1710 c0 -126 -4 -230 -8 -230 -5 0 -21 13 -36 29 -39 41 -135
66 -222 58 -124 -12 -226 -81 -288 -196 -41 -76 -56 -143 -56 -251 0 -156 39
-258 131 -346 71 -66 131 -89 234 -89 100 1 169 29 224 91 21 24 41 41 45 37
3 -3 6 -30 6 -60 l0 -53 121 0 c121 0 121 0 115 23 -3 12 -6 291 -6 620 l0
597 -130 0 -130 0 0 -230z m-73 -368 c54 -38 68 -82 68 -212 0 -131 -16 -177
-75 -217 -39 -27 -116 -31 -159 -8 -146 75 -144 385 3 451 43 20 126 13 163
-14z"/>
<path d="M1483 1923 c-34 -7 -81 -59 -89 -98 -25 -135 144 -216 240 -116 52
54 42 155 -20 196 -26 16 -95 26 -131 18z"/>
<path d="M250 1871 c0 -5 5 -13 10 -16 6 -3 10 -2 10 4 0 5 -4 13 -10 16 -5 3
-10 2 -10 -4z"/>
<path d="M10 1810 c0 -22 5 -40 10 -40 6 0 10 18 10 40 0 22 -4 40 -10 40 -5
0 -10 -18 -10 -40z"/>
<path d="M43 1810 c0 -25 2 -35 4 -22 2 12 2 32 0 45 -2 12 -4 2 -4 -23z"/>
<path d="M280 1796 c0 -8 4 -17 9 -20 5 -4 7 3 4 14 -6 23 -13 26 -13 6z"/>
<path d="M291 1734 c0 -11 3 -14 6 -6 3 7 2 16 -1 19 -3 4 -6 -2 -5 -13z"/>
<path d="M310 1701 c0 -6 4 -13 10 -16 6 -3 7 1 4 9 -7 18 -14 21 -14 7z"/>
<path d="M326 1645 c-9 -25 -7 -43 3 -26 7 11 12 4 21 -27 6 -23 13 -42 16
-42 6 0 -6 47 -21 84 -10 23 -13 25 -19 11z"/>
<path d="M1398 1118 c-4 -448 -6 -475 -47 -522 -22 -24 -77 -52 -124 -60 -37
-7 -39 -9 -33 -39 3 -18 9 -63 12 -101 l7 -69 71 6 c186 16 307 103 351 252
27 88 35 221 35 598 l0 367 -134 0 -135 0 -3 -432z"/>
<path d="M365 1530 c-3 -5 -1 -10 4 -10 6 0 11 5 11 10 0 6 -2 10 -4 10 -3 0
-8 -4 -11 -10z"/>
<path d="M381 1484 c0 -11 3 -14 6 -6 3 7 2 16 -1 19 -3 4 -6 -2 -5 -13z"/>
<path d="M350 1469 c0 -5 5 -7 10 -4 6 3 10 8 10 11 0 2 -4 4 -10 4 -5 0 -10
-5 -10 -11z"/>
<path d="M80 1380 c0 -5 4 -10 9 -10 6 0 13 5 16 10 3 6 -1 10 -9 10 -9 0 -16
-4 -16 -10z"/>
<path d="M2080 839 c-80 -28 -163 -56 -185 -64 -22 -8 -71 -24 -109 -37 l-68
-24 -23 -90 c-13 -50 -32 -108 -43 -130 -29 -56 -104 -127 -168 -158 -57 -28
-178 -56 -243 -56 -58 0 -69 15 -81 105 -6 44 -13 92 -16 106 l-5 27 -172 -59
c-95 -33 -183 -61 -196 -64 -39 -7 -745 -246 -755 -256 -25 -23 43 -108 103
-128 24 -8 307 -11 1010 -11 926 0 978 1 1016 19 48 22 69 44 90 94 13 30 15
96 15 407 0 290 -3 370 -12 369 -7 0 -78 -23 -158 -50z"/>
</g>
</svg>
