<?xml version="1.0" standalone="no"?>

<svg version="1.0" xmlns="http://www.w3.org/2000/svg"
 viewBox="0 0 207.000000 243.000000"
 preserveAspectRatio="xMidYMid meet">

<g transform="translate(0.000000,243.000000) scale(0.100000,-0.100000)"
fill="#000000" stroke="none">
<path d="M1327 2304 c-8 -8 1 -24 14 -24 5 0 9 7 9 15 0 15 -12 20 -23 9z"/>
<path d="M462 2288 c3 -7 15 -14 27 -16 20 -3 22 -8 19 -55 -3 -49 -5 -52 -30
-52 -38 0 -45 -13 -13 -25 22 -8 33 -7 51 5 21 14 24 23 24 85 l0 70 -41 0
c-28 0 -39 -4 -37 -12z"/>
<path d="M1560 2281 c0 -11 -6 -22 -12 -25 -10 -5 -10 -7 0 -12 7 -3 12 -24
12 -49 0 -45 19 -68 48 -58 19 7 14 23 -8 23 -17 0 -20 7 -20 40 0 29 4 40 15
40 8 0 15 5 15 10 0 6 -7 10 -15 10 -8 0 -15 9 -15 20 0 11 -4 20 -10 20 -5 0
-10 -9 -10 -19z"/>
<path d="M593 2253 c-24 -9 -13 -21 18 -19 18 0 34 -5 36 -11 3 -9 -5 -13 -24
-13 -16 0 -34 -5 -41 -12 -32 -32 5 -76 50 -59 13 4 29 6 36 4 15 -6 17 69 2
98 -10 18 -48 24 -77 12z m57 -77 c0 -8 -7 -17 -16 -20 -19 -7 -47 12 -38 25
9 15 54 10 54 -5z"/>
<path d="M702 2252 c2 -4 12 -31 22 -60 26 -68 46 -68 75 -1 23 57 25 69 12
69 -5 0 -18 -21 -29 -47 l-20 -46 -20 46 c-12 26 -26 47 -32 47 -7 0 -10 -4
-8 -8z"/>
<path d="M863 2253 c-24 -9 -13 -21 18 -19 18 0 34 -5 36 -11 3 -9 -5 -13 -24
-13 -33 0 -53 -16 -53 -42 0 -23 35 -42 57 -30 9 5 24 7 34 5 17 -5 19 1 19
40 0 64 -35 92 -87 70z m57 -77 c0 -8 -7 -17 -16 -20 -19 -7 -47 12 -38 25 9
15 54 10 54 -5z"/>
<path d="M990 2245 c-16 -20 -6 -43 25 -55 36 -14 32 -33 -5 -28 -40 6 -49 -9
-13 -23 66 -25 103 39 38 67 -38 15 -38 36 -2 33 35 -2 43 1 27 11 -22 14 -56
12 -70 -5z"/>
<path d="M1110 2240 c-46 -46 3 -123 64 -100 38 14 32 27 -11 26 -32 -1 -38 2
-41 22 -5 34 16 54 50 47 30 -7 40 8 12 19 -29 11 -54 6 -74 -14z"/>
<path d="M1240 2200 c0 -33 4 -60 10 -60 6 0 10 16 10 35 0 22 8 41 22 55 24
22 18 41 -7 20 -10 -8 -15 -9 -15 -1 0 6 -4 11 -10 11 -6 0 -10 -27 -10 -60z"/>
<path d="M1330 2200 c0 -33 4 -60 10 -60 6 0 10 27 10 60 0 33 -4 60 -10 60
-6 0 -10 -27 -10 -60z"/>
<path d="M1390 2173 c0 -70 3 -83 16 -83 12 0 15 7 12 30 -4 23 -1 29 9 25 7
-3 19 -7 26 -10 24 -10 60 29 60 64 0 43 -15 56 -73 57 l-50 1 0 -84z m90 53
c19 -24 8 -61 -19 -64 -29 -4 -53 22 -44 46 12 33 43 41 63 18z"/>
<path d="M797 1503 c-3 -93 -3 -295 -1 -450 4 -197 2 -283 -5 -283 -6 0 -74
18 -152 40 -78 22 -150 40 -161 40 -17 0 -19 -7 -16 -97 l3 -96 120 -34 c66
-18 177 -48 248 -67 l127 -34 0 574 0 574 -78 0 -79 0 -6 -167z"/>
<path d="M1100 1297 l0 -373 158 28 c86 15 163 28 170 28 15 0 17 -137 2 -160
-5 -9 -75 -32 -167 -56 l-158 -41 -3 -100 -3 -101 63 15 c215 53 392 104 399
115 5 7 9 27 9 43 0 17 9 136 19 265 10 129 18 236 17 237 -1 1 -76 -7 -166
-17 -91 -11 -166 -20 -167 -20 -2 0 -3 70 -3 155 l0 155 179 0 179 0 7 78 c3
42 8 87 11 100 l4 22 -275 0 -275 0 0 -373z"/>
</g>
</svg>
