<?xml version="1.0" standalone="no"?>

<svg version="1.0" xmlns="http://www.w3.org/2000/svg"
 viewBox="0 0 260.000000 260.000000"
 preserveAspectRatio="xMidYMid meet">

<g transform="translate(0.000000,260.000000) scale(0.100000,-0.100000)"
fill="#000000" stroke="none">
<path d="M1447 1921 l-57 -30 0 25 c0 27 -1 27 -50 15 -19 -5 -47 -12 -62 -15
-37 -8 -35 -19 7 -39 l35 -17 0 -87 c0 -125 -8 -161 -34 -165 -11 -2 -22 -11
-24 -20 -3 -16 6 -18 92 -18 76 0 96 3 96 14 0 8 -13 19 -30 25 l-30 10 0 114
c0 128 7 143 72 153 27 5 41 1 64 -19 28 -25 29 -28 32 -136 l4 -111 -32 -11
c-55 -20 -29 -34 68 -37 76 -2 92 0 92 12 0 8 -12 21 -27 28 -28 13 -28 13
-33 140 -5 126 -5 128 -35 158 -45 44 -79 47 -148 11z"/>
<path d="M147 1924 c-27 -7 -54 -15 -60 -17 -7 -2 5 -12 26 -22 l37 -19 0
-123 0 -124 -30 -10 c-17 -6 -30 -17 -30 -23 0 -10 24 -13 90 -12 93 1 114 12
65 34 -25 11 -25 13 -25 132 l0 119 30 16 c58 30 111 15 129 -36 12 -36 15
-198 3 -215 -4 -6 -17 -14 -29 -18 -13 -4 -23 -14 -23 -22 0 -11 19 -14 90
-14 73 0 90 3 90 15 0 8 -11 17 -25 21 -24 6 -25 8 -25 99 0 51 -3 106 -6 122
-5 27 -2 32 29 46 46 22 79 21 108 -2 22 -18 24 -27 27 -135 l4 -116 -26 -11
c-50 -23 -29 -34 64 -35 64 0 90 3 90 12 0 7 -13 17 -30 23 l-30 10 0 111 c0
121 -12 166 -51 194 -35 24 -95 20 -146 -10 l-44 -25 -30 25 c-40 34 -90 34
-148 1 -23 -14 -45 -25 -47 -25 -2 0 -4 11 -4 25 0 28 -4 28 -73 9z"/>
<path d="M925 1921 c-73 -34 -105 -85 -105 -170 0 -111 66 -182 171 -183 63 0
136 35 166 80 60 91 31 230 -57 274 -45 23 -124 23 -175 -1z m136 -47 c39 -37
52 -83 47 -161 -4 -57 -8 -69 -32 -89 -92 -80 -215 63 -176 204 22 83 100 105
161 46z"/>
<path d="M1822 1919 c-51 -26 -72 -62 -72 -125 0 -42 4 -51 40 -85 l40 -38
-30 -18 c-37 -21 -38 -47 -5 -69 l25 -16 -45 -42 c-51 -48 -57 -78 -23 -121
83 -106 318 -44 344 91 14 76 -28 112 -146 123 -45 5 -86 13 -92 19 -18 18 -1
42 30 42 44 0 112 41 134 80 12 22 18 49 16 73 -3 32 -1 37 17 37 27 0 41 11
49 35 5 18 1 20 -52 21 -31 1 -86 5 -122 9 -55 5 -71 3 -108 -16z m103 -15
c24 -10 45 -58 45 -104 0 -45 -34 -90 -68 -90 -32 0 -71 39 -82 81 -23 84 30
141 105 113z m40 -354 c43 -10 75 -40 75 -71 0 -10 -13 -33 -29 -51 -27 -30
-34 -33 -90 -33 -67 0 -113 25 -119 65 -12 80 53 116 163 90z"/>
<path d="M2254 1921 c-73 -33 -111 -106 -101 -193 13 -103 72 -158 169 -158
128 0 204 80 196 207 -4 70 -23 103 -78 141 -42 28 -127 30 -186 3z m116 -26
c51 -27 77 -100 72 -203 -1 -22 -12 -44 -32 -64 -27 -26 -36 -30 -67 -25 -44
7 -89 48 -104 95 -6 19 -9 63 -7 99 4 57 8 69 32 89 31 28 65 30 106 9z"/>
<path d="M274 1407 c-111 -113 -173 -242 -193 -403 -20 -158 16 -292 114 -429
41 -58 109 -125 127 -125 4 0 10 23 14 52 l7 52 14 -47 c10 -35 19 -47 32 -47
29 0 125 113 164 193 47 97 59 154 58 268 -1 176 -63 320 -205 480 -23 25 -45
52 -51 61 -8 14 -21 6 -81 -55z"/>
<path d="M925 1302 c-192 -2 -214 -6 -215 -34 0 -3 19 -9 43 -13 104 -18 103
-12 97 -413 l-5 -334 -24 -19 c-13 -10 -34 -19 -47 -19 -20 0 -44 -24 -44 -44
0 -3 105 -6 233 -6 258 0 313 8 415 60 93 48 146 100 187 183 104 212 40 476
-139 581 -91 53 -174 63 -501 58z m311 -74 c119 -39 210 -145 233 -272 37
-202 -31 -380 -174 -454 -93 -48 -274 -31 -306 29 -14 28 -13 688 2 705 19 23
166 18 245 -8z"/>
<path d="M1727 1293 c-18 -17 -3 -32 38 -38 85 -13 80 12 80 -388 0 -391 2
-381 -64 -393 -42 -8 -61 -20 -61 -41 0 -12 35 -14 243 -11 223 3 247 6 299
26 82 33 141 83 172 144 63 127 9 258 -126 306 -26 9 -48 19 -48 22 0 3 19 16
41 30 23 14 52 44 66 68 21 36 25 52 21 103 -6 85 -57 144 -147 169 -40 11
-504 14 -514 3z m419 -58 c79 -23 114 -71 116 -158 2 -59 -23 -111 -63 -136
-25 -15 -164 -27 -203 -17 l-26 6 0 144 c0 80 3 151 6 160 8 21 102 22 170 1z
m69 -392 c48 -25 80 -58 94 -96 15 -39 14 -131 -3 -170 -30 -73 -117 -114
-215 -103 -111 13 -121 33 -121 242 l0 157 103 -5 c77 -4 112 -10 142 -25z"/>
</g>
</svg>
