<?xml version="1.0" standalone="no"?>

<svg version="1.0" xmlns="http://www.w3.org/2000/svg"
 viewBox="0 0 215.000000 234.000000"
 preserveAspectRatio="xMidYMid meet">
<g transform="translate(0.000000,234.000000) scale(0.100000,-0.100000)"
fill="#000000" stroke="none">
<path d="M1430 2333 c-1 -4 -1 -72 -1 -150 0 -91 -3 -143 -10 -143 -5 0 -23 7
-38 14 -27 14 -32 13 -127 -43 l-99 -57 0 -124 0 -124 100 -57 c54 -32 102
-56 105 -55 3 2 49 29 103 60 l97 57 -2 282 -3 282 -62 33 c-35 18 -63 29 -63
25z m-41 -440 c25 -14 31 -25 31 -50 0 -18 1 -36 2 -40 1 -5 -13 -18 -31 -30
l-33 -22 -39 20 c-35 17 -39 23 -39 58 0 33 5 42 33 59 40 26 39 25 76 5z"/>
<path d="M133 2013 l-93 -55 0 -154 c0 -87 4 -154 9 -154 5 0 34 15 65 33 l56
32 0 77 c0 71 2 78 26 97 32 25 46 26 84 6 28 -15 29 -18 32 -97 l3 -82 55
-32 c30 -18 61 -33 68 -34 9 0 12 37 12 153 l0 153 -100 57 c-55 31 -105 57
-112 56 -7 0 -55 -25 -105 -56z"/>
<path d="M725 2033 c-33 -19 -77 -46 -98 -59 l-38 -25 3 -117 3 -117 60 -36
c33 -19 79 -46 102 -59 l42 -23 103 59 103 59 0 120 0 120 -100 57 c-55 32
-104 58 -110 57 -5 0 -37 -16 -70 -36z"/>
<path d="M1805 2012 l-100 -57 -3 -114 c-2 -73 1 -118 9 -127 6 -7 52 -36 102
-65 l92 -51 63 33 c34 18 62 38 62 43 0 6 -43 35 -95 64 l-95 53 0 43 c0 38 3
45 34 61 33 18 34 18 67 -1 26 -16 35 -28 39 -56 l5 -37 63 36 c61 34 62 36
62 77 l0 42 -98 57 c-55 31 -101 57 -103 57 -2 0 -49 -26 -104 -58z"/>
<path d="M1888 1869 c-24 -14 -23 -56 2 -69 45 -24 83 35 43 66 -22 16 -23 16
-45 3z"/>
<path d="M889 1471 c-383 -220 -465 -270 -484 -296 -19 -25 -20 -44 -23 -383
-3 -419 -6 -403 97 -465 134 -81 174 -97 243 -97 51 0 72 5 99 23 68 45 69 50
69 455 l0 362 -50 0 -50 0 0 -344 c0 -332 -1 -344 -21 -370 -33 -42 -77 -36
-184 26 -49 28 -93 56 -97 62 -10 14 -10 658 0 672 6 9 578 344 587 344 4 0
579 -331 585 -337 6 -6 9 -596 3 -648 l-5 -40 -260 -150 c-144 -83 -275 -158
-293 -168 l-31 -19 -76 46 c-42 25 -80 46 -85 46 -21 0 -103 -42 -98 -50 3 -4
53 -37 113 -71 82 -49 116 -64 147 -64 34 0 87 27 345 176 176 102 313 188
325 204 19 25 20 41 20 395 0 356 -1 369 -21 396 -11 15 -90 68 -175 117 -426
247 -463 267 -494 267 -21 0 -82 -29 -186 -89z"/>
<path d="M1102 1091 c-95 -33 -142 -95 -142 -188 0 -78 25 -117 93 -148 49
-23 76 -28 261 -55 96 -14 145 -36 152 -67 9 -36 -14 -80 -52 -98 -75 -36
-258 -28 -314 14 -14 10 -32 38 -40 62 -14 39 -19 44 -49 47 -19 2 -45 1 -58
-3 -23 -5 -24 -9 -18 -48 16 -92 63 -145 165 -183 33 -13 78 -18 165 -18 138
-1 204 16 262 67 46 41 63 82 63 154 0 124 -60 163 -305 198 -139 20 -193 39
-201 70 -17 67 29 98 152 103 123 6 175 -16 204 -83 l20 -46 52 3 53 3 -2 39
c-5 84 -67 152 -166 181 -72 21 -228 19 -295 -4z"/>
</g>
</svg>
