<?xml version="1.0" standalone="no"?>
<svg version="1.0" xmlns="http://www.w3.org/2000/svg"
 viewBox="0 0 300.000000 300.000000"
 preserveAspectRatio="xMidYMid meet">

<g transform="translate(0.000000,300.000000) scale(0.100000,-0.100000)"
fill="#000000" stroke="none">
<path d="M1263 2665 c-72 -20 -142 -57 -178 -95 -28 -30 -30 -37 -34 -127 l-3
-95 -56 4 c-71 6 -130 -7 -161 -35 -13 -12 -40 -56 -60 -97 -36 -75 -36 -75
-36 -210 0 -116 4 -144 24 -200 44 -122 89 -150 243 -150 l103 0 -3 96 c-3 90
-2 98 23 134 15 21 44 50 64 63 37 24 45 26 227 29 225 4 242 9 304 97 19 28
25 50 28 118 4 82 7 89 28 75 15 -10 1 -139 -21 -185 -27 -57 -97 -114 -156
-126 -28 -6 -121 -11 -207 -11 -150 0 -159 -1 -193 -24 -49 -33 -70 -83 -81
-191 -16 -150 -20 -312 -8 -295 9 13 12 12 22 -5 18 -32 87 -95 104 -95 9 0
22 -7 30 -15 8 -8 21 -12 29 -9 7 3 22 1 32 -5 16 -9 15 -10 -9 -11 -43 0
-137 47 -176 88 -19 20 -30 27 -24 15 61 -113 325 -164 510 -99 59 21 120 56
126 73 4 9 1 11 -5 7 -7 -4 -10 -1 -7 7 3 8 13 12 23 11 16 -3 17 -1 6 11 -8
10 -9 17 -1 22 5 3 10 0 10 -7 0 -9 3 -9 10 2 5 8 10 52 10 96 l0 82 95 4 95
4 35 38 c19 21 35 44 35 51 0 8 3 15 8 17 4 2 17 33 30 70 42 128 20 350 -45
436 -48 64 -75 73 -196 70 -59 -2 -107 -1 -107 2 0 3 -1 55 -3 116 -2 98 -5
114 -26 145 -31 46 -74 73 -156 98 -80 25 -221 27 -302 6z m318 -64 c30 -11
69 -35 85 -52 l29 -30 3 -187 c2 -179 1 -189 -20 -226 -40 -68 -67 -76 -271
-76 -168 0 -180 -1 -225 -24 -91 -47 -132 -115 -132 -223 l0 -73 -70 0 c-114
0 -152 33 -184 158 -36 142 -4 336 67 403 l30 29 274 0 274 0 -3 26 -3 26
-167 -1 -168 -2 0 80 c0 78 1 81 34 114 22 22 59 42 112 60 70 25 90 27 179
24 70 -3 117 -11 156 -26z m135 -498 c-50 -91 -67 -97 -296 -103 -185 -5 -197
-6 -230 -29 -82 -56 -101 -89 -111 -196 l-8 -80 3 87 c2 81 5 91 32 125 17 21
52 53 78 71 l48 32 173 0 c224 0 254 10 294 96 14 30 22 67 23 116 l2 73 3
-82 c3 -60 0 -90 -11 -110z m284 110 c43 -48 64 -130 65 -258 0 -94 -4 -119
-25 -174 -14 -35 -38 -77 -53 -92 l-29 -29 -274 0 -275 0 3 -26 3 -26 168 1
167 2 0 -73 c0 -89 -18 -124 -81 -155 -148 -75 -383 -64 -477 22 l-37 33 -3
194 c-4 292 2 298 278 298 162 0 179 2 225 24 94 43 145 125 145 233 l0 65 86
-3 c82 -4 87 -6 114 -36z m-265 -843 c-3 -5 -13 -10 -21 -10 -8 0 -14 -4 -14
-9 0 -5 -7 -11 -15 -15 -25 -9 -17 8 13 26 31 20 46 23 37 8z m-75 -40 c0 -5
-10 -10 -22 -10 -19 0 -20 2 -8 10 19 13 30 13 30 0z m-72 -27 c-10 -2 -26 -2
-35 0 -10 3 -2 5 17 5 19 0 27 -2 18 -5z"/>
<path d="M1203 2565 c-42 -18 -56 -47 -48 -101 6 -39 9 -44 39 -49 18 -4 46
-5 61 -3 60 7 88 138 32 151 -12 2 -29 7 -37 10 -8 4 -29 0 -47 -8z m80 -36
c16 -23 17 -30 7 -50 -17 -31 -29 -39 -62 -39 -17 0 -33 9 -42 22 -20 28 -20
48 0 76 22 31 70 26 97 -9z"/>
<path d="M1603 2294 c-51 -34 -120 -52 -228 -59 -220 -13 -228 -14 -344 -58
-69 -26 -201 -112 -201 -131 0 -24 18 -28 25 -6 8 26 104 91 184 125 79 33
133 42 296 50 110 6 142 11 204 35 41 16 78 27 83 24 9 -6 22 20 16 34 -1 5
-17 -2 -35 -14z"/>
<path d="M980 1796 c0 -8 -8 -17 -17 -19 -14 -4 -12 -5 5 -6 16 -1 22 5 22 19
0 11 -2 20 -5 20 -3 0 -5 -6 -5 -14z"/>
<path d="M1989 1932 c-33 -25 -89 -52 -109 -52 -9 0 -20 -4 -26 -10 -5 -5 -83
-14 -174 -19 -180 -12 -247 -27 -348 -81 -79 -42 -138 -92 -128 -109 6 -8 17
-2 39 22 89 94 281 157 478 157 54 0 105 7 144 19 97 31 155 59 155 76 0 19
-2 19 -31 -3z"/>
<path d="M1940 1745 c-10 -12 -57 -15 -294 -18 l-281 -2 291 -3 c263 -2 292 0
298 14 9 23 1 28 -14 9z"/>
<path d="M1567 1538 c-23 -18 -37 -63 -31 -97 5 -23 2 -30 -12 -34 -11 -3 0
-5 23 -6 23 0 50 -4 60 -8 10 -4 3 6 -14 21 -42 35 -45 78 -8 102 35 23 73 11
89 -28 16 -38 27 -24 19 25 l-6 37 -51 0 c-29 0 -60 -6 -69 -12z"/>
<path d="M1220 1467 c0 -30 100 -66 198 -71 l87 -5 -75 9 c-97 11 -149 28
-182 59 -23 20 -28 22 -28 8z"/>
<path d="M1533 1059 l-23 -8 0 -256 0 -255 28 0 27 0 -3 128 -4 129 46 21 c56
27 67 27 97 3 23 -18 24 -25 24 -150 l0 -131 28 0 27 0 0 128 c0 144 -8 167
-61 196 -37 20 -58 17 -142 -19 -17 -7 -18 -1 -16 104 1 61 1 113 -2 115 -2 2
-14 0 -26 -5z"/>
<path d="M1345 969 c-17 -8 -19 -18 -17 -54 4 -40 2 -45 -17 -45 -12 0 -21 -6
-21 -15 0 -8 9 -15 20 -15 19 0 20 -7 20 -125 0 -120 1 -127 25 -150 28 -29
95 -36 95 -10 0 8 -9 15 -19 15 -43 0 -51 24 -51 151 l0 121 33 -4 c26 -2 32
0 32 17 0 17 -6 19 -33 17 l-34 -4 4 56 c3 58 -1 63 -37 45z"/>
<path d="M659 857 l-44 -24 -3 -221 c-2 -216 -2 -221 19 -232 11 -7 23 -9 26
-6 3 3 5 47 4 97 l-2 92 23 -8 c13 -4 46 -10 73 -12 40 -4 56 0 76 16 83 65
77 261 -10 305 -44 23 -110 20 -162 -7z m147 -38 c14 -16 20 -39 22 -98 3 -86
-9 -119 -52 -139 -24 -12 -34 -12 -72 3 l-44 17 0 109 c0 104 1 110 23 119 42
17 102 12 123 -11z"/>
<path d="M976 871 c-18 -7 -19 -18 -17 -142 l2 -134 31 -29 c28 -26 35 -28 92
-24 33 3 69 8 79 13 15 6 17 1 17 -36 0 -24 -7 -52 -14 -61 -15 -21 -76 -48
-106 -48 -15 0 -20 -5 -18 -17 9 -41 141 2 169 55 11 19 14 76 14 225 0 200 0
200 -22 203 -23 4 -23 3 -23 -135 l0 -139 -32 -13 c-47 -20 -99 -15 -120 11
-15 19 -18 42 -18 151 0 71 -3 129 -7 128 -5 0 -17 -4 -27 -8z"/>
<path d="M1910 858 c-59 -41 -74 -70 -74 -146 0 -114 51 -172 154 -172 45 0
54 4 88 38 106 106 45 302 -93 302 -27 0 -54 -8 -75 -22z m129 -42 c48 -52 46
-179 -5 -223 -78 -69 -159 22 -141 159 11 82 95 119 146 64z"/>
<path d="M2232 854 l-52 -26 0 -144 0 -144 30 0 30 0 0 140 c0 132 1 140 21
151 35 18 89 13 113 -10 19 -20 21 -32 21 -151 l0 -130 28 0 27 0 0 136 c0 74
-5 144 -10 155 -29 53 -126 64 -208 23z"/>
</g>
</svg>
