<?xml version="1.0" standalone="no"?>

<svg version="1.0" xmlns="http://www.w3.org/2000/svg"
 viewBox="0 0 648.000000 699.000000"
 preserveAspectRatio="xMidYMid meet">

<g transform="translate(0.000000,699.000000) scale(0.100000,-0.100000)"
fill="#000000" stroke="none">
<path d="M2733 6603 c26 -2 68 -2 95 0 26 2 4 3 -48 3 -52 0 -74 -1 -47 -3z"/>
<path d="M3633 6603 c26 -2 68 -2 95 0 26 2 4 3 -48 3 -52 0 -74 -1 -47 -3z"/>
<path d="M1253 6303 c-4 -10 -12 -22 -20 -26 -15 -9 -18 -47 -3 -47 6 0 10 8
10 18 0 11 9 27 20 37 22 20 26 35 10 35 -6 0 -14 -8 -17 -17z"/>
<path d="M5186 6306 c3 -9 11 -16 16 -16 13 0 5 23 -10 28 -7 2 -10 -2 -6 -12z"/>
<path d="M5220 6261 c0 -11 5 -23 10 -26 6 -3 10 3 10 14 0 11 -4 23 -10 26
-5 3 -10 -3 -10 -14z"/>
<path d="M5246 6198 c-8 -33 -5 -3807 4 -3843 6 -27 8 -28 16 -10 14 31 12
3851 -2 3865 -8 8 -13 5 -18 -12z"/>
<path d="M1191 6191 c-13 -23 -11 -3844 2 -3857 4 -4 10 -4 15 0 11 11 14
3858 3 3869 -6 6 -13 1 -20 -12z"/>
<path d="M2405 6031 c-72 -41 -97 -60 -130 -104 -19 -25 -35 -52 -35 -60 0 -8
-7 -20 -15 -27 -8 -7 -15 -23 -15 -35 0 -12 -7 -39 -15 -58 -12 -28 -15 -81
-15 -230 0 -147 4 -205 15 -237 8 -23 15 -59 15 -79 0 -21 7 -46 15 -57 24
-32 19 -54 -12 -54 -16 0 -41 -7 -57 -15 -15 -8 -38 -15 -50 -15 -12 0 -31 -7
-42 -15 -10 -8 -29 -15 -40 -15 -12 0 -27 -7 -34 -15 -7 -8 -23 -15 -36 -15
-12 0 -26 -5 -29 -11 -4 -5 -17 -14 -28 -20 -12 -5 -31 -14 -42 -21 -38 -22
-50 -28 -65 -35 -51 -22 -210 -163 -210 -185 0 -4 -15 -29 -32 -55 -32 -47
-33 -51 -33 -150 1 -81 4 -106 18 -121 9 -10 17 -25 17 -32 0 -17 64 -95 114
-140 22 -19 48 -43 58 -52 10 -10 22 -18 27 -18 5 0 11 -4 13 -8 3 -9 98 -68
132 -83 12 -5 28 -13 36 -17 48 -27 84 -42 100 -42 9 0 23 -7 30 -15 7 -8 24
-15 39 -15 15 0 32 -5 38 -11 7 -7 29 -15 50 -18 30 -5 39 -11 41 -30 2 -13
-1 -28 -7 -34 -6 -6 -11 -28 -11 -48 0 -20 -7 -53 -15 -72 -21 -51 -21 -430 0
-467 8 -14 14 -39 15 -56 0 -17 7 -37 15 -44 8 -7 15 -21 15 -31 0 -25 124
-149 148 -149 10 0 27 -7 38 -15 26 -20 179 -20 227 0 20 8 47 15 60 15 14 0
30 7 37 15 7 8 23 15 35 15 12 0 28 7 35 15 7 8 20 15 30 15 10 0 23 7 30 15
7 8 21 15 31 15 11 0 19 5 19 11 0 5 14 15 30 20 17 6 30 15 30 20 0 5 5 9 11
9 18 0 123 85 182 147 45 49 61 50 98 8 18 -20 60 -57 93 -83 34 -25 63 -49
66 -52 12 -13 70 -50 79 -50 5 0 11 -7 15 -15 3 -8 14 -15 25 -15 11 0 22 -4
26 -9 3 -6 27 -20 53 -32 26 -12 54 -25 62 -30 42 -25 122 -42 218 -46 81 -4
99 -2 140 18 55 26 162 131 162 158 0 10 7 24 15 31 8 7 15 23 15 37 0 13 8
36 18 50 15 24 17 54 16 263 0 165 -4 242 -12 257 -7 13 -17 48 -23 79 -11 62
-5 74 39 74 12 0 22 5 22 10 0 6 13 10 28 10 16 0 37 7 48 15 10 8 29 15 40
15 12 0 27 7 34 15 7 8 19 15 27 15 8 0 27 6 41 14 15 8 34 17 42 20 8 4 29
15 45 26 17 11 37 23 45 27 67 31 250 207 250 240 0 6 7 16 15 23 8 7 15 25
15 41 0 15 5 40 11 56 12 33 -4 129 -30 178 -20 37 -68 103 -96 131 -37 37
-143 114 -158 114 -8 0 -19 6 -25 13 -6 6 -41 27 -79 46 -37 18 -80 39 -95 47
-14 8 -34 14 -45 14 -10 0 -27 7 -37 15 -11 8 -28 15 -38 15 -10 0 -26 4 -36
9 -9 5 -30 13 -47 18 -22 6 -29 14 -27 29 10 76 22 133 31 157 17 45 14 436
-4 467 -8 14 -14 39 -15 56 0 17 -7 37 -15 44 -8 7 -15 19 -15 27 0 33 -111
153 -143 153 -8 0 -20 7 -27 16 -11 12 -34 15 -129 12 -65 -2 -131 -10 -151
-18 -52 -20 -103 -42 -120 -52 -8 -4 -19 -10 -25 -12 -41 -16 -46 -19 -135
-78 -30 -20 -73 -52 -95 -72 -22 -20 -43 -36 -47 -36 -11 0 -88 -80 -88 -91 0
-25 -47 -4 -89 39 -68 71 -247 202 -276 202 -8 0 -16 4 -20 9 -9 15 -124 67
-210 95 -68 22 -219 20 -260 -3z m245 -151 c19 -7 49 -19 65 -26 17 -7 37 -15
45 -18 8 -4 29 -15 45 -26 17 -11 39 -24 50 -30 41 -22 62 -36 77 -50 8 -8 54
-44 101 -79 99 -74 106 -91 53 -133 -19 -15 -56 -55 -81 -88 -26 -33 -60 -75
-76 -92 -16 -18 -29 -38 -29 -44 0 -7 -7 -14 -15 -18 -8 -3 -15 -12 -15 -19 0
-8 -7 -21 -17 -28 -20 -18 -171 -48 -240 -48 -29 -1 -70 -8 -90 -16 -21 -8
-65 -16 -98 -17 l-60 -3 -7 65 c-3 36 -11 85 -17 110 -5 25 -10 120 -11 211 0
130 3 169 15 185 8 10 15 31 15 45 0 15 7 32 15 39 8 7 15 17 15 22 0 5 17 25
38 44 36 34 38 35 112 31 41 -2 91 -9 110 -17z m1384 -12 c20 -17 36 -37 36
-44 0 -6 7 -17 15 -24 8 -7 15 -24 15 -39 1 -14 7 -37 15 -51 21 -37 21 -371
0 -430 -8 -23 -15 -65 -15 -92 l0 -50 -72 7 c-40 4 -85 14 -100 21 -15 8 -46
14 -70 14 -24 0 -86 7 -138 16 l-95 17 -85 114 c-47 63 -111 141 -143 174 -67
68 -68 79 -2 124 24 17 79 57 122 90 87 67 108 81 140 94 11 6 24 15 28 20 3
6 14 11 24 11 10 0 24 7 31 15 7 8 22 15 34 15 11 1 32 7 46 15 15 9 54 14
102 15 72 0 78 -2 112 -32z m-738 -245 c0 -10 3 -42 7 -70 l8 -53 -76 0 -76 0
6 53 c10 78 11 80 49 74 18 -3 39 -1 47 4 22 14 35 11 35 -8z m-2 -229 c47
-63 149 -174 161 -174 4 0 15 5 26 11 17 9 28 4 64 -26 48 -39 102 -65 137
-65 13 -1 38 -9 57 -19 31 -16 32 -19 16 -28 -17 -10 -17 -11 3 -31 14 -14 40
-24 74 -28 29 -3 72 -12 96 -20 23 -8 61 -14 84 -14 40 0 40 0 34 -32 -3 -17
-13 -39 -21 -48 -8 -9 -15 -29 -15 -43 0 -15 -4 -27 -10 -27 -5 0 -12 -17 -16
-37 -4 -21 -10 -42 -14 -48 -4 -5 -10 -22 -14 -37 -10 -45 -29 -32 -65 45 -49
104 -100 188 -133 218 -15 14 -28 33 -28 42 0 23 -8 21 -30 -5 l-18 -23 -49
47 c-61 56 -99 76 -158 85 -41 5 -45 8 -45 33 0 25 -4 28 -68 40 -67 12 -235
9 -294 -5 -25 -7 -28 -5 -28 18 0 18 16 42 48 74 56 57 112 127 112 141 0 9
11 15 41 21 3 0 27 -29 53 -65z m-283 -166 c6 -13 21 -33 32 -46 26 -28 16
-37 -50 -47 -66 -10 -103 -28 -157 -79 -51 -48 -70 -56 -80 -31 -7 20 -26 19
-26 0 0 -9 -7 -18 -15 -21 -12 -5 -31 -31 -92 -129 -7 -11 -17 -30 -23 -43
-62 -138 -84 -160 -96 -97 -3 19 -10 38 -15 41 -5 3 -9 18 -9 34 0 16 -6 35
-13 42 -8 7 -17 30 -21 51 -4 20 -11 37 -17 37 -6 0 -9 15 -7 33 3 29 6 32 34
29 17 -2 50 4 75 12 24 9 60 16 79 17 39 1 66 8 95 26 17 10 18 15 8 32 -7 12
-13 23 -13 25 0 8 63 26 90 26 33 0 104 38 145 79 37 35 61 38 76 9z m1163
-90 c7 -24 16 -43 41 -87 14 -24 25 -46 25 -48 0 -1 -11 -3 -24 -3 -14 0 -37
-10 -53 -23 -37 -31 -57 -25 -88 29 -14 24 -30 44 -36 44 -18 0 2 20 34 34 18
7 43 25 56 40 27 29 40 33 45 14z m-1819 -29 c17 -11 40 -24 53 -29 22 -9 22
-11 7 -40 -9 -16 -20 -30 -24 -30 -5 0 -12 -13 -16 -30 -8 -38 -27 -38 -84 -1
-24 16 -50 27 -57 24 -8 -3 -14 1 -14 11 0 9 4 16 9 16 6 0 22 22 38 50 31 55
44 60 88 29z m1178 -45 c15 -3 27 -11 27 -18 0 -7 12 -31 28 -53 36 -52 50
-74 62 -98 6 -11 19 -33 30 -50 11 -16 25 -42 31 -57 6 -16 14 -28 19 -28 4 0
10 -8 14 -17 3 -10 21 -45 40 -78 60 -106 78 -145 72 -158 -3 -6 -15 -25 -26
-42 -11 -16 -22 -36 -25 -42 -3 -7 -7 -19 -10 -25 -3 -7 -14 -26 -25 -43 -10
-16 -31 -52 -45 -80 -14 -27 -35 -63 -46 -80 -10 -16 -22 -38 -25 -47 -4 -10
-10 -18 -14 -18 -5 0 -12 -10 -16 -22 -3 -12 -19 -39 -35 -61 -16 -22 -29 -46
-29 -54 0 -14 -8 -14 -405 -17 -115 0 -220 2 -232 6 -14 5 -23 16 -23 27 0 11
-6 24 -13 28 -8 4 -17 15 -20 23 -4 8 -15 27 -25 41 -9 15 -33 53 -52 85 -19
33 -40 68 -47 79 -7 11 -17 31 -23 45 -6 13 -14 27 -18 30 -4 3 -18 28 -31 55
-14 28 -35 67 -48 88 -25 40 -25 43 7 92 10 17 36 63 56 103 21 40 44 78 51
84 7 6 13 19 13 29 0 10 5 21 11 24 5 4 14 17 20 28 14 33 33 61 47 70 6 4 12
15 12 24 0 8 14 32 30 53 17 21 30 43 30 48 0 6 8 15 17 21 18 9 567 14 616 5z
m-1249 -139 c9 -13 16 -40 16 -58 0 -19 7 -40 15 -47 8 -7 15 -22 15 -34 0
-12 7 -31 15 -42 8 -10 15 -29 15 -40 0 -12 7 -27 15 -34 8 -7 15 -23 15 -35
0 -12 7 -28 15 -35 8 -7 15 -19 15 -27 0 -7 7 -24 15 -37 14 -21 14 -24 0 -36
-8 -7 -15 -20 -15 -29 0 -9 -7 -25 -15 -35 -8 -11 -15 -28 -15 -38 0 -10 -7
-21 -15 -24 -8 -4 -15 -18 -15 -33 0 -14 -7 -35 -15 -45 -8 -11 -15 -29 -15
-40 0 -12 -7 -30 -15 -40 -8 -11 -15 -30 -15 -42 0 -39 -29 -96 -46 -90 -9 3
-28 9 -42 13 -15 3 -33 12 -40 20 -7 7 -26 13 -41 13 -16 0 -34 7 -41 15 -7 8
-20 15 -29 15 -9 0 -25 7 -35 15 -11 8 -28 15 -38 15 -10 0 -18 4 -18 9 0 5
-10 13 -22 17 -54 17 -228 159 -252 206 -4 7 -13 24 -21 38 -17 29 -19 87 -5
125 10 27 143 166 170 178 8 4 29 16 45 27 17 11 42 25 58 31 15 6 27 15 27
20 0 5 11 9 24 9 13 0 29 7 36 15 7 8 22 15 34 15 11 0 30 7 40 15 11 8 30 15
42 15 12 0 27 6 34 14 11 14 33 21 71 25 9 0 24 -10 33 -24z m1997 -1 c8 -8
24 -14 35 -14 11 0 29 -7 40 -15 10 -8 29 -15 40 -15 12 0 27 -7 34 -15 7 -8
20 -15 30 -15 10 0 23 -7 30 -15 7 -8 19 -15 26 -15 26 0 165 -103 218 -161
78 -87 89 -149 38 -228 -30 -45 -141 -147 -188 -172 -70 -37 -85 -46 -97 -58
-6 -6 -19 -11 -28 -11 -9 0 -22 -7 -29 -15 -7 -8 -22 -15 -34 -15 -12 0 -31
-7 -42 -15 -10 -8 -28 -15 -38 -15 -11 0 -27 -6 -35 -14 -9 -8 -32 -17 -51
-21 l-36 -6 -17 63 c-10 35 -24 76 -32 91 -8 16 -15 35 -15 42 0 7 -6 26 -14
42 -7 15 -21 46 -31 68 -9 22 -21 47 -26 55 -33 55 -34 115 -4 140 8 7 15 23
15 35 0 12 7 28 15 35 8 7 15 22 15 34 0 11 7 30 15 40 8 11 15 29 15 40 0 12
7 30 15 40 8 11 15 30 15 43 0 13 4 31 9 41 5 9 12 25 15 36 5 15 12 17 44 11
20 -4 44 -13 53 -21z m-1768 -246 c3 -10 9 -10 26 0 11 6 25 12 31 12 15 0 11
-72 -5 -94 -9 -12 -15 -42 -15 -76 0 -34 6 -64 15 -76 8 -10 15 -34 15 -53 0
-27 -3 -32 -17 -28 -10 2 -24 6 -32 8 -7 2 -16 -2 -18 -8 -3 -7 3 -13 11 -13
10 0 19 -12 23 -30 3 -16 9 -30 14 -30 5 0 9 -4 9 -9 0 -10 35 -88 53 -116 39
-63 82 -121 94 -128 7 -4 13 -15 13 -23 0 -23 25 -11 28 14 4 29 16 28 41 -4
58 -74 178 -133 241 -119 28 6 56 -15 31 -23 -25 -8 -61 -58 -61 -84 0 -37
-16 -35 -55 5 -51 51 -101 83 -152 97 -77 19 -93 28 -87 45 11 27 -31 55 -89
61 -28 3 -77 9 -107 15 -30 6 -65 13 -77 15 -27 5 -32 47 -8 70 8 9 15 25 15
37 0 12 7 31 15 41 8 11 15 32 15 46 0 14 4 30 9 36 4 5 11 24 15 42 5 29 3
35 -15 39 -18 5 -20 12 -17 47 3 23 11 62 18 89 13 42 12 51 -2 80 -20 38 -33
101 -23 116 9 15 42 14 48 -1z m1407 0 c16 -10 24 -10 40 0 23 14 50 16 50 4
0 -5 -9 -35 -21 -68 -23 -66 -21 -132 5 -183 32 -61 9 -92 -44 -59 -15 10 -22
10 -32 0 -6 -6 -18 -12 -25 -12 -19 0 -17 70 3 98 24 35 22 124 -5 158 -24 30
-26 45 -9 62 15 15 14 15 38 0z m37 -358 c3 -16 9 -30 14 -30 5 0 9 -13 9 -29
0 -16 7 -34 15 -41 8 -7 15 -24 15 -38 0 -14 7 -33 16 -43 9 -10 18 -36 21
-58 l6 -41 -46 0 c-24 0 -67 -6 -93 -14 -27 -8 -71 -18 -99 -23 -45 -7 -51
-12 -60 -40 -14 -42 -16 -43 -67 -54 -63 -14 -115 -41 -129 -66 -6 -12 -25
-27 -42 -34 -26 -11 -31 -10 -43 6 -13 17 -16 16 -54 -26 -23 -24 -62 -70 -87
-102 -25 -32 -56 -70 -70 -85 l-25 -27 -32 39 c-17 21 -61 70 -98 110 -42 44
-68 80 -68 94 0 12 2 22 5 22 3 0 49 -5 101 -11 88 -9 278 2 294 18 3 2 -4 11
-15 19 -17 13 -18 16 -5 24 8 5 20 10 26 10 7 0 36 8 65 17 62 19 127 65 140
99 11 31 24 30 45 -1 19 -28 34 -33 34 -9 0 8 14 29 31 46 17 17 35 41 40 52
5 12 18 35 29 51 25 40 77 144 85 173 9 32 34 27 42 -8z m253 -280 c42 0 34
-30 -33 -125 -14 -19 -15 -19 -51 13 -23 20 -47 32 -65 32 -43 0 -43 9 -1 50
22 21 40 47 40 57 0 11 6 25 12 31 10 10 19 5 45 -23 17 -19 41 -35 53 -35z
m-1837 26 c5 -15 20 -39 33 -53 13 -14 24 -32 24 -38 0 -12 -128 -81 -136 -73
-2 2 -17 30 -34 61 l-30 57 22 9 c13 5 39 23 58 40 41 35 50 35 63 -3z m1727
-186 c0 -17 7 -47 16 -68 13 -30 16 -78 17 -252 1 -189 -1 -218 -16 -240 -9
-13 -17 -34 -17 -46 0 -12 -7 -27 -15 -34 -8 -7 -15 -16 -15 -21 0 -11 -28
-39 -60 -62 -32 -22 -148 -24 -176 -2 -10 8 -28 15 -40 15 -11 0 -41 11 -65
25 -24 14 -51 27 -59 31 -31 12 -171 106 -197 132 -30 30 -100 82 -111 82 -6
0 -14 9 -17 20 -5 16 5 32 43 68 27 26 71 76 97 112 27 36 54 70 60 75 6 6 26
34 45 63 19 29 44 54 55 56 11 2 47 9 81 15 33 6 83 11 111 11 28 0 73 6 99
14 48 14 127 32 152 35 7 1 12 -11 12 -29z m-1593 -6 c18 -8 58 -14 90 -14 32
0 100 -8 152 -17 l94 -18 72 -95 c79 -104 123 -156 173 -206 38 -38 40 -63 10
-90 -50 -43 -228 -174 -236 -174 -5 0 -15 -7 -22 -15 -7 -8 -20 -15 -30 -15
-10 0 -23 -7 -30 -15 -7 -8 -20 -15 -30 -15 -10 0 -23 -7 -30 -15 -7 -8 -24
-15 -39 -15 -14 -1 -37 -7 -51 -15 -36 -21 -144 -19 -178 3 -34 22 -62 49 -62
61 0 5 -7 14 -15 21 -8 7 -15 25 -15 39 0 15 -7 36 -15 47 -21 28 -21 369 0
421 8 19 15 59 15 88 0 33 5 55 13 58 18 8 96 -4 134 -19z m669 -325 c4 -6 20
-9 38 -6 17 3 44 3 59 0 26 -5 27 -7 27 -73 l0 -67 -67 1 -68 1 -1 55 c0 30
-4 65 -8 78 -9 23 7 32 20 11z"/>
<path d="M3110 4805 c-7 -8 -20 -15 -29 -15 -23 -1 -121 -103 -121 -127 0 -11
-7 -26 -15 -33 -11 -9 -15 -35 -15 -105 0 -70 4 -96 15 -105 8 -7 15 -20 15
-30 0 -10 7 -23 15 -30 8 -7 15 -18 15 -24 0 -18 56 -63 100 -81 8 -4 27 -13
42 -21 15 -8 55 -14 96 -14 67 0 102 11 180 54 32 19 92 88 92 107 0 9 7 22
15 29 12 10 15 36 15 115 0 79 -3 105 -15 115 -8 7 -15 20 -15 29 0 23 -86
107 -135 131 -51 26 -235 29 -255 5z m179 -66 c151 -34 218 -220 125 -345 -13
-17 -44 -46 -70 -63 -40 -26 -57 -31 -107 -31 -69 0 -111 17 -162 68 -55 54
-79 113 -71 174 11 83 64 151 146 187 52 23 78 25 139 10z"/>
<path d="M1220 2263 c0 -5 0 -324 0 -711 1 -796 -5 -738 85 -824 27 -27 57
-48 66 -48 9 0 22 -7 29 -15 7 -8 20 -15 29 -15 10 0 26 -7 37 -15 10 -8 27
-15 37 -15 11 0 33 -6 50 -14 18 -8 48 -17 67 -20 19 -3 60 -10 90 -16 159
-32 202 -40 275 -50 44 -6 126 -15 183 -20 56 -5 107 -12 113 -16 6 -3 92 -10
192 -15 100 -5 259 -13 352 -19 217 -13 589 -12 820 1 99 5 257 14 350 19 94
5 188 14 210 19 22 6 69 11 105 11 36 0 92 7 125 15 33 8 78 15 100 15 22 0
62 7 89 15 27 8 67 15 88 15 22 0 47 4 57 10 10 5 43 14 72 19 58 10 107 25
152 47 16 8 37 14 47 14 9 0 23 7 30 15 7 8 18 15 24 15 20 0 105 83 126 123
19 34 19 65 22 751 l3 716 -2012 0 c-1107 0 -2013 -3 -2013 -7z m3879 -137
c21 -19 21 -22 21 -630 0 -584 -1 -612 -19 -642 -47 -77 -138 -119 -376 -174
-85 -20 -355 -60 -470 -70 -66 -6 -154 -14 -195 -20 -41 -5 -246 -14 -455 -21
-575 -17 -1134 3 -1520 56 -427 59 -592 103 -684 180 -63 54 -61 35 -61 698 0
563 1 605 18 619 9 9 26 18 37 21 11 3 844 4 1851 3 1786 -1 1832 -1 1853 -20z"/>
<path d="M2125 1823 c-35 -10 -85 -49 -123 -98 l-37 -48 -3 -183 c-3 -231 3
-257 73 -324 30 -27 62 -50 73 -50 11 0 36 11 56 25 47 32 83 32 126 0 37 -28
67 -31 116 -13 27 10 39 8 82 -10 61 -26 165 -29 219 -7 46 19 78 19 109 -1
21 -14 42 -16 130 -11 70 4 111 11 126 21 30 21 67 20 128 -4 67 -27 154 -27
198 0 41 25 68 25 117 0 66 -33 104 -26 175 32 19 15 43 28 54 28 10 0 38 -18
62 -40 39 -36 49 -40 95 -40 34 0 71 9 108 25 l57 26 54 -25 c64 -30 169 -35
225 -12 38 16 118 94 140 136 39 75 27 165 -31 248 -40 56 -42 75 -11 116 34
45 39 64 22 96 -20 39 -92 98 -132 109 -41 11 -139 -1 -181 -23 -40 -21 -77
-20 -112 1 -38 22 -77 6 -130 -54 -46 -53 -60 -106 -60 -232 0 -79 -3 -91 -28
-132 -16 -24 -39 -53 -51 -64 l-23 -20 -30 34 c-36 40 -34 74 7 159 22 47 24
58 15 87 -13 40 -79 117 -134 157 -51 36 -86 36 -143 -3 -38 -26 -60 -33 -128
-40 -87 -9 -115 -17 -180 -51 l-40 -20 -68 36 c-79 42 -117 45 -197 15 -88
-32 -99 -33 -138 -11 -49 26 -105 34 -171 23 l-53 -8 -62 55 c-33 30 -79 63
-101 73 -41 18 -165 32 -200 22z m132 -108 c19 -8 42 -15 50 -15 8 0 30 -17
48 -37 29 -32 35 -45 35 -85 0 -41 -4 -50 -44 -90 l-44 -43 28 -28 c15 -16 30
-43 33 -60 3 -18 12 -52 21 -76 20 -53 15 -71 -20 -71 -42 0 -64 26 -64 77 0
82 -48 142 -114 143 l-38 0 3 -107 4 -108 -36 -3 c-52 -4 -57 9 -48 113 5 50
6 154 3 232 l-7 142 44 11 c24 6 49 13 54 15 22 8 58 4 92 -10z m2088 5 c3 -5
14 -10 24 -10 10 0 24 -6 30 -14 9 -11 7 -20 -12 -42 -23 -27 -25 -27 -70 -15
-71 20 -127 -3 -127 -52 0 -24 37 -67 57 -67 8 0 21 -7 29 -15 9 -8 23 -15 32
-15 9 0 35 -17 57 -37 39 -36 40 -38 39 -105 0 -64 -2 -69 -33 -97 -18 -17
-56 -37 -85 -45 -47 -15 -56 -14 -116 2 -57 15 -65 21 -68 43 -2 15 5 32 18
44 19 17 21 17 38 2 29 -26 129 -23 159 5 13 12 23 31 23 42 0 28 -59 86 -87
86 -13 0 -23 4 -23 10 0 5 -11 12 -24 16 -13 3 -37 19 -52 35 -26 27 -29 38
-29 93 0 54 4 67 25 89 14 15 32 27 41 27 9 0 22 7 29 15 14 17 115 21 125 5z
m-309 -12 c4 -7 6 -102 5 -212 -3 -197 -3 -200 -29 -233 -27 -37 -88 -73 -121
-73 -11 0 -32 5 -46 12 -22 10 -26 17 -23 47 l3 36 59 0 c58 0 59 0 71 35 9
26 11 82 6 203 -5 140 -4 170 9 182 17 18 56 20 66 3z m-467 -42 c8 -10 8 -21
1 -41 -14 -37 -5 -46 41 -43 27 1 44 -3 50 -13 22 -36 -1 -60 -56 -56 l-38 2
2 -105 c2 -58 7 -110 13 -117 5 -6 24 -13 41 -15 27 -3 33 -8 35 -33 7 -60
-61 -74 -120 -25 l-37 31 -3 132 -3 132 -28 3 c-24 3 -28 7 -25 30 2 18 10 28
28 32 21 5 26 13 28 45 2 22 9 43 15 47 19 12 43 9 56 -6z m-884 -104 c40 -32
67 -92 63 -144 l-3 -43 -115 -1 c-111 -1 -115 -2 -118 -23 -8 -54 68 -90 149
-72 50 11 69 2 69 -34 0 -19 -9 -26 -55 -40 -52 -17 -58 -17 -109 -1 -100 32
-150 128 -125 241 13 57 58 116 103 136 35 15 111 4 141 -19z m331 -1 c40 -32
51 -74 55 -218 4 -127 4 -128 -19 -131 -13 -2 -29 1 -36 7 -14 12 -43 5 -93
-20 -31 -16 -98 16 -123 59 -30 50 -26 82 18 129 34 38 43 43 102 50 56 7 65
11 68 29 7 49 -66 71 -128 39 -26 -13 -30 -13 -44 1 -21 20 -20 31 4 52 29 24
58 31 116 28 35 -2 60 -10 80 -25z m384 14 c10 -6 15 -75 4 -75 -3 0 -26 5
-51 12 -39 9 -50 9 -79 -7 -36 -19 -74 -81 -74 -119 0 -13 14 -42 31 -66 l31
-43 69 5 c75 6 93 -3 87 -44 -2 -16 -13 -25 -38 -31 -76 -19 -89 -19 -112 -3
-12 9 -29 16 -38 16 -40 1 -87 69 -90 131 -6 114 -3 125 50 178 27 27 60 52
72 54 28 7 124 1 138 -8z"/>
<path d="M2155 1638 c-3 -8 -5 -46 -3 -84 l3 -69 55 3 c72 5 90 22 90 82 0 59
-12 70 -84 77 -44 5 -57 3 -61 -9z"/>
<path d="M2532 1491 c-39 -53 -32 -61 57 -61 44 0 83 5 86 10 4 6 -2 25 -12
43 -16 27 -25 32 -64 35 -40 3 -47 0 -67 -27z"/>
<path d="M2920 1381 c-47 -20 -64 -49 -49 -88 11 -31 44 -38 82 -16 24 15 33
28 38 59 6 35 -3 65 -20 63 -3 0 -26 -8 -51 -18z"/>
</g>
</svg>
