<?xml version="1.0" standalone="no"?>

<svg version="1.0" xmlns="http://www.w3.org/2000/svg"
 viewBox="0 0 254.000000 198.000000"
 preserveAspectRatio="xMidYMid meet">

<g transform="translate(0.000000,198.000000) scale(0.100000,-0.100000)"
fill="#000000" stroke="none">
<path d="M1203 1810 c-195 -40 -325 -252 -310 -505 5 -94 40 -218 78 -281 13
-22 17 -41 13 -63 -8 -36 11 -88 37 -101 34 -19 88 -12 114 15 51 50 19 139
-55 154 -33 6 -37 12 -69 91 -30 75 -35 99 -39 197 -5 134 15 217 75 303 67
95 200 143 297 106 77 -30 159 -144 172 -240 6 -42 9 -45 50 -59 l44 -14 -6
41 c-36 239 -211 395 -401 356z m-135 -810 c50 -24 66 -49 53 -83 -19 -51 -94
-42 -105 12 -7 34 -5 91 4 91 3 0 25 -9 48 -20z"/>
<path d="M1143 1428 c-29 -14 -55 -70 -47 -103 16 -65 112 -88 156 -37 23 26
25 27 103 21 202 -17 384 -128 459 -282 56 -115 41 -213 -44 -290 -74 -67
-169 -85 -276 -52 -63 19 -63 19 -102 -14 l-33 -29 73 -22 c59 -18 90 -21 163
-18 107 5 179 35 245 100 66 66 75 90 75 198 0 88 -3 101 -33 163 -88 179
-300 307 -534 324 -48 3 -88 10 -88 14 0 12 -55 39 -77 38 -10 0 -28 -5 -40
-11z m111 -54 l39 -22 -48 -31 c-56 -36 -63 -37 -93 -15 -34 24 -24 82 18 96
18 6 32 1 84 -28z"/>
<path d="M750 1182 c-105 -108 -144 -244 -107 -373 78 -264 495 -279 752 -26
40 40 87 97 104 129 21 37 40 58 56 62 26 7 55 52 55 86 0 12 -13 35 -29 51
-58 58 -151 26 -151 -52 0 -22 5 -48 12 -58 10 -16 4 -29 -35 -84 -113 -159
-340 -266 -501 -236 -78 14 -106 29 -150 81 -43 50 -60 104 -54 173 6 65 30
115 89 179 46 51 48 54 38 89 -5 21 -13 37 -16 37 -4 0 -32 -26 -63 -58z m805
-96 c14 -14 22 -31 19 -40 -4 -11 -102 -116 -108 -116 -1 0 -1 34 -1 76 0 63
3 78 19 90 28 20 43 18 71 -10z m-143 -237 c-17 -16 -32 -33 -32 -39 0 -5 -4
-10 -8 -10 -5 0 -17 -8 -28 -18 -38 -36 -107 -82 -122 -82 -9 0 7 14 34 32 27
18 78 60 114 94 35 35 67 60 70 58 3 -3 -10 -19 -28 -35z"/>
<path d="M1310 455 l0 -65 -25 16 c-34 22 -89 3 -116 -40 -28 -44 -22 -135 11
-171 27 -29 89 -35 110 -10 16 19 30 19 30 0 0 -10 10 -15 30 -15 l30 0 0 175
0 175 -35 0 -35 0 0 -65z m-19 -95 c15 -9 19 -22 19 -63 0 -29 -5 -58 -12 -65
-19 -19 -56 -14 -69 9 -15 29 -5 100 17 116 21 16 21 16 45 3z"/>
<path d="M635 340 l0 -170 40 0 41 0 -4 66 c-4 64 -4 66 18 62 16 -2 35 -22
59 -63 35 -58 38 -60 83 -63 l48 -3 -34 53 c-19 29 -41 61 -50 71 -16 17 -15
19 13 43 57 48 48 123 -19 156 -25 13 -59 18 -115 18 l-80 0 0 -170z m163 98
c17 -17 15 -54 -4 -72 -8 -9 -31 -16 -50 -16 l-34 0 0 50 0 50 38 0 c21 0 43
-5 50 -12z"/>
<path d="M980 409 c-65 -27 -92 -88 -71 -160 21 -70 117 -102 191 -64 34 17
37 27 15 45 -12 10 -21 10 -41 1 -39 -17 -71 -13 -88 11 -9 12 -16 26 -16 30
0 5 36 8 80 8 78 0 80 1 80 24 0 79 -79 134 -150 105z m72 -56 c29 -26 22 -33
-32 -33 -54 0 -59 4 -33 32 20 22 41 23 65 1z"/>
<path d="M1660 413 c0 -1 18 -28 40 -59 44 -64 45 -58 -16 -141 -13 -17 -24
-34 -24 -38 0 -3 17 -5 37 -3 33 3 41 9 62 47 l24 43 26 -46 c25 -43 28 -46
69 -46 l43 0 -41 59 c-22 33 -40 64 -40 69 0 5 16 31 35 58 19 27 35 51 35 54
0 3 -18 4 -39 2 -34 -3 -41 -9 -56 -43 -10 -21 -21 -39 -25 -39 -4 0 -15 18
-25 39 -16 36 -21 39 -61 43 -24 2 -44 2 -44 1z"/>
<path d="M1420 316 c0 -79 3 -97 21 -120 24 -31 81 -36 117 -10 20 14 22 14
22 0 0 -11 10 -16 30 -16 l30 0 0 120 0 120 -35 0 -35 0 0 -89 c0 -93 -4 -101
-50 -101 -25 0 -30 19 -30 111 l0 79 -35 0 -35 0 0 -94z"/>
</g>
</svg>
