<svg width="1011" height="106" viewBox="0 0 1011 106" fill="none" xmlns="http://www.w3.org/2000/svg">
<mask id="path-1-outside-1_12_10" maskUnits="userSpaceOnUse" x="0.8125" y="0.28125" width="1010" height="106" fill="black">
<rect fill="white" x="0.8125" y="0.28125" width="1010" height="106"/>
<path d="M19.9062 13C20.6875 16.6562 21.0781 20.9062 21.0781 25.75C21.0781 26.0938 21.0781 26.4219 21.0781 26.7344L20.9375 35.4531L39.3125 34.4219C39.8125 35.0156 40.0625 36.2344 40.0625 38.0781C40.0625 39.9219 39.9062 41.7344 39.5938 43.5156C37.875 43.7656 35.6406 43.8906 32.8906 43.8906C30.1406 43.8906 26.1562 43.5781 20.9375 42.9531L20.8438 56.3125C20.8438 62.4688 21.2656 68.0312 22.1094 73C19.4531 73.8125 16.2188 74.2188 12.4062 74.2188C8.625 74.2188 6.23438 73.8125 5.23438 73C6.17188 64.6562 6.64062 54.8281 6.64062 43.5156V17.875C6.64062 15.75 6.34375 14.3281 5.75 13.6094C5.1875 12.8594 4.10938 12.2344 2.51562 11.7344C2.04688 11.1094 1.8125 10.1094 1.8125 8.73438C1.8125 7.32812 1.85938 6.34375 1.95312 5.78125C4.60938 5.75 8.375 5.71875 13.25 5.6875C18.125 5.65625 21.7812 5.625 24.2188 5.59375C31 5.5 39.5156 5.25 49.7656 4.84375C50.2656 5.28125 50.5156 7.29688 50.5156 10.8906C50.5156 14.4844 50.0312 17.2031 49.0625 19.0469C48.0938 20.8906 46.2812 21.8125 43.625 21.8125C40.9688 21.8125 39.1094 20.9844 38.0469 19.3281V13.6562C28.9219 13.2188 22.875 13 19.9062 13Z"/>
<path d="M58.4375 30.4375C56.375 30.4375 55.3438 29.5469 55.3438 27.7656C55.3438 27.2656 55.375 26.8906 55.4375 26.6406C56.5312 25.8594 59.2031 25.1094 63.4531 24.3906C67.7031 23.6406 71.1406 23.2656 73.7656 23.2656C74.7344 26.4219 75.2188 29.9688 75.2188 33.9062C75.2188 37.8438 75.0156 42.3438 74.6094 47.4062C74.2344 52.4375 74.0469 55.9844 74.0469 58.0469C74.0469 60.1094 74.3594 61.7812 74.9844 63.0625C75.6094 64.3125 76.8906 64.9375 78.8281 64.9375C80.7969 64.9375 82.8125 64.4688 84.875 63.5312C86.9688 62.5625 89.625 60.7969 92.8438 58.2344C92.8438 48.6094 92.875 37.1719 92.9375 23.9219C96.5312 23.3594 99.4219 23.0781 101.609 23.0781C103.828 23.0781 105.75 23.3594 107.375 23.9219C106.906 30.7656 106.672 37.3438 106.672 43.6562C106.672 49.9375 106.844 56.4844 107.188 63.2969C107.25 64.3281 107.453 65.125 107.797 65.6875C108.141 66.25 109.031 66.5781 110.469 66.6719C111.938 66.7656 112.953 66.9219 113.516 67.1406C113.641 67.7969 113.703 68.8594 113.703 70.3281C110.984 71.8594 108.25 72.9531 105.5 73.6094C102.75 74.2969 100.422 74.6406 98.5156 74.6406C96.6094 74.6406 95.2969 73.9375 94.5781 72.5312C93.8906 71.125 93.3438 68.3125 92.9375 64.0938C85.3125 71.125 78.0312 74.6406 71.0938 74.6406C64.1562 74.6406 60.6875 69.1406 60.6875 58.1406L61.4844 33.3438C61.4844 32.2812 61.1562 31.5312 60.5 31.0938C59.875 30.6562 59.1875 30.4375 58.4375 30.4375Z"/>
<path d="M125 13.1875C124.469 10.1562 122.484 8.4375 119.047 8.03125C118.828 6.5 118.719 5.64062 118.719 5.45312C118.719 5.23438 118.734 5 118.766 4.75C124.672 2.4375 130.656 1.28125 136.719 1.28125C137 1.28125 137.297 1.28125 137.609 1.28125C138.266 2.125 138.703 4.09375 138.922 7.1875C139.141 10.25 139.25 17.4062 139.25 28.6562C139.25 39.875 139.078 54.6562 138.734 73C136.672 73.5938 134.203 73.8906 131.328 73.8906C128.453 73.8906 126.219 73.5625 124.625 72.9062C125.188 68.7188 125.469 60.7344 125.469 48.9531C125.469 37.1719 125.312 25.25 125 13.1875Z"/>
<path d="M152.844 13.1875C152.312 10.1562 150.328 8.4375 146.891 8.03125C146.672 6.5 146.562 5.64062 146.562 5.45312C146.562 5.23438 146.578 5 146.609 4.75C152.516 2.4375 158.5 1.28125 164.562 1.28125C164.844 1.28125 165.141 1.28125 165.453 1.28125C166.109 2.125 166.547 4.09375 166.766 7.1875C166.984 10.25 167.094 17.4062 167.094 28.6562C167.094 39.875 166.922 54.6562 166.578 73C164.516 73.5938 162.047 73.8906 159.172 73.8906C156.297 73.8906 154.062 73.5625 152.469 72.9062C153.031 68.7188 153.312 60.7344 153.312 48.9531C153.312 37.1719 153.156 25.25 152.844 13.1875Z"/>
<path d="M206.141 59.9688C206.141 56.3125 208.234 54.4844 212.422 54.4844C214.547 54.4844 216.641 55.0312 218.703 56.125C218.703 60.0938 219.531 63.1406 221.188 65.2656C222.844 67.3594 225.672 68.4062 229.672 68.4062C233.703 68.4062 236.656 67.6406 238.531 66.1094C240.406 64.5781 241.344 62.1406 241.344 58.7969C241.344 55.2344 239.969 52.1875 237.219 49.6562C234.969 47.5625 232.359 45.75 229.391 44.2188C226.422 42.6875 224.031 41.4375 222.219 40.4688C220.406 39.4688 218.672 38.375 217.016 37.1875C215.391 36 213.938 34.7188 212.656 33.3438C209.906 30.375 208.531 26.8281 208.531 22.7031C208.531 18.5469 209.609 15.0469 211.766 12.2031C215.984 6.64062 222.844 3.85938 232.344 3.85938C239.656 3.85938 245.234 5.375 249.078 8.40625C252.578 11.1875 254.328 14.2812 254.328 17.6875C254.328 19.2812 253.781 20.5938 252.688 21.625C251.625 22.6562 249.969 23.1719 247.719 23.1719C245.469 23.1719 243.156 22.5938 240.781 21.4375C240.781 21.2188 240.781 21.0156 240.781 20.8281C240.781 17.3594 240 14.5781 238.438 12.4844C236.906 10.3906 234.578 9.34375 231.453 9.34375C228.328 9.34375 225.844 10.2188 224 11.9688C222.188 13.7188 221.281 16.2969 221.281 19.7031C221.281 22.6406 222.719 25.2188 225.594 27.4375C227.594 29 230.219 30.5938 233.469 32.2188C236.719 33.8438 239.281 35.1719 241.156 36.2031C243.062 37.2031 244.875 38.3438 246.594 39.625C248.312 40.875 249.828 42.25 251.141 43.75C254.016 47 255.453 50.75 255.453 55C255.453 59.2188 254.312 62.7969 252.031 65.7344C249.75 68.6406 246.703 70.8594 242.891 72.3906C239.078 73.8906 235.234 74.6406 231.359 74.6406C227.516 74.6406 224.266 74.3281 221.609 73.7031C218.953 73.1094 216.703 72.3125 214.859 71.3125C213.016 70.2812 211.422 69.125 210.078 67.8438C207.453 65.3438 206.141 62.7188 206.141 59.9688Z"/>
<path d="M291.406 63.5781C292.531 64.6094 293.172 65.6719 293.328 66.7656C289.203 72.0156 284.438 74.6406 279.031 74.6406C275.5 74.6406 273 73.2344 271.531 70.4219C270.281 67.9531 269.516 63.7188 269.234 57.7188C268.984 48.3438 268.859 39.6094 268.859 31.5156C265.672 31.3906 263.719 31.2344 263 31.0469C262.844 30.7969 262.766 29.875 262.766 28.2812C262.766 26.6875 262.844 25.8125 263 25.6562L268.953 25.0938C268.953 24.4375 269.047 21.2969 269.234 15.6719C270.797 14.0781 273.078 12.8594 276.078 12.0156C279.109 11.1406 281.797 10.7031 284.141 10.7031C283.703 14.6719 283.344 19.4688 283.062 25.0938C284.094 25.125 287.203 25.3125 292.391 25.6562C292.547 26.1875 292.625 27.2031 292.625 28.7031C292.625 30.2031 292.547 31.1094 292.391 31.4219C289.516 31.7969 286.312 32.0312 282.781 32.125C282.656 35.8438 282.594 40.5469 282.594 46.2344C282.594 51.8906 282.719 57.2344 282.969 62.2656C283.062 64.2031 284.031 65.1719 285.875 65.1719C287.75 65.1719 289.594 64.6406 291.406 63.5781Z"/>
<path d="M346.391 46.5156L346.109 62.2656C346.109 62.4219 346.109 62.5781 346.109 62.7344C346.109 64.4531 346.922 65.3125 348.547 65.3125C349.797 65.3125 351.125 64.9062 352.531 64.0938C352.969 64.4688 353.375 65 353.75 65.6875C354.156 66.3438 354.391 66.8594 354.453 67.2344C350.578 72.1719 346.547 74.6406 342.359 74.6406C338.203 74.6406 335.297 72.5938 333.641 68.5C330.766 70.5 327.828 72.0156 324.828 73.0469C321.859 74.1094 319.297 74.6406 317.141 74.6406C315.016 74.6406 313.031 74.4062 311.188 73.9375C309.375 73.4688 307.688 72.7188 306.125 71.6875C302.75 69.5 301.062 65.8906 301.062 60.8594C301.062 58.1719 301.797 55.8281 303.266 53.8281C304.766 51.7969 306.797 50.2031 309.359 49.0469C314.266 46.8281 320.125 45.625 326.938 45.4375L332.375 45.25C332.594 42.7188 332.703 40.7188 332.703 39.25C332.703 35.9375 332.062 33.4375 330.781 31.75C329.531 30.0625 327.188 29.2188 323.75 29.2188C321.688 29.2188 320.078 29.9375 318.922 31.375C317.797 32.8125 317.234 34.9375 317.234 37.75C317.234 38.125 316.703 38.5781 315.641 39.1094C313.859 39.9531 312.078 40.375 310.297 40.375C308.547 40.375 307.141 39.875 306.078 38.875C305.047 37.875 304.531 36.4688 304.531 34.6562C304.531 32.8438 305.188 31.1406 306.5 29.5469C307.812 27.9531 309.562 26.7188 311.75 25.8438C316.094 24.125 321.047 23.2656 326.609 23.2656C332.422 23.2656 336.672 24.1875 339.359 26.0312C341.797 27.6562 343.531 29.9844 344.562 33.0156C345.781 36.5469 346.391 41.0469 346.391 46.5156ZM332.375 63.5781C331.969 61.2969 331.766 59.3281 331.766 57.6719C331.766 55.9844 331.812 53.6406 331.906 50.6406L325.391 50.9219C322.047 50.9219 319.469 51.7344 317.656 53.3594C315.844 54.9844 314.938 57.0156 314.938 59.4531C314.938 61.8906 315.469 63.6406 316.531 64.7031C317.594 65.7656 319.734 66.2969 322.953 66.2969C326.203 66.2969 329.344 65.3906 332.375 63.5781Z"/>
<path d="M409.156 34.7031C409.156 39.4531 406.688 41.8281 401.75 41.8281C400.062 41.8281 398.844 41.6406 398.094 41.2656C397.344 40.8594 396.969 40.625 396.969 40.5625C397.062 39.9688 397.109 39.3594 397.109 38.7344C397.109 35.7969 396.156 33.4688 394.25 31.75C392.375 30 389.844 29.125 386.656 29.125C383.469 29.125 380.906 30.5 378.969 33.25C377.031 35.9688 376.062 40.2031 376.062 45.9531C376.062 51.7031 377.719 56.7812 381.031 61.1875C384.375 65.5938 388.094 67.7969 392.188 67.7969C395.719 67.7969 399.25 66.375 402.781 63.5312C403.594 62.875 404.406 62.0938 405.219 61.1875C405.906 61.625 406.609 62.25 407.328 63.0625C408.078 63.8438 408.531 64.5938 408.688 65.3125C407.219 67.2812 405 69.1719 402.031 70.9844C397.969 73.4219 393.484 74.6406 388.578 74.6406C383.672 74.6406 379.203 73.6094 375.172 71.5469C371.172 69.4844 368.016 66.5312 365.703 62.6875C363.391 58.8438 362.234 54.4688 362.234 49.5625C362.234 40.125 365.719 32.8438 372.688 27.7188C377.156 24.4375 382.594 22.7969 389 22.7969C394.406 22.7969 399.109 23.9688 403.109 26.3125C404.922 27.375 406.375 28.6406 407.469 30.1094C408.562 31.5781 409.125 33.1094 409.156 34.7031Z"/>
<path d="M467.094 65.5938C468.344 65.5938 469.562 65.1875 470.75 64.375L472.672 67.5156C470.578 70.6719 467.875 72.875 464.562 74.125C463.188 74.6562 461.766 74.9219 460.297 74.9219C458.828 74.9219 457.391 74.5312 455.984 73.75C454.609 73 453.391 72.0312 452.328 70.8438C451.266 69.6562 450.219 68.1719 449.188 66.3906C448.188 64.6094 447.344 62.9062 446.656 61.2812C445.969 59.625 445.281 57.75 444.594 55.6562C443.75 53.1875 442.797 49.8438 441.734 45.625C439.578 48.9688 437.562 51.6875 435.688 53.7812C435.688 57.4062 435.625 63.8125 435.5 73C432.438 73.5938 429.703 73.8906 427.297 73.8906C424.922 73.8906 422.922 73.5625 421.297 72.9062C422.078 68.1875 422.469 59.375 422.469 46.4688C422.469 33.5625 422.234 22.4688 421.766 13.1875C421.516 10.1875 419.531 8.46875 415.812 8.03125C415.781 7.84375 415.734 7.5625 415.672 7.1875C415.547 6.46875 415.484 5.95312 415.484 5.64062C415.484 5.29688 415.5 5 415.531 4.75C421.375 2.4375 427.344 1.28125 433.438 1.28125C433.719 1.28125 434.016 1.28125 434.328 1.28125C435.016 2.15625 435.438 3.92188 435.594 6.57812C435.75 9.23438 435.828 14.625 435.828 22.75C435.828 30.875 435.812 38.3438 435.781 45.1562C439.25 38.6875 442.312 34.0312 444.969 31.1875C448.219 27.7188 450.953 25.5469 453.172 24.6719C455.422 23.7969 457.438 23.3594 459.219 23.3594C462.344 23.3594 464.875 24.2344 466.812 25.9844C468.781 27.7031 469.766 30.0312 469.766 32.9688C469.766 35.875 468.797 38.2031 466.859 39.9531C464.953 41.6719 462.672 42.5312 460.016 42.5312C459.453 42.5312 458.891 42.4844 458.328 42.3906C458.328 38.8281 457.641 36.3125 456.266 34.8438C455.641 34.1562 454.703 33.8125 453.453 33.8125C452.234 33.8125 451.016 34.3125 449.797 35.3125C448.578 36.2812 447.172 37.8281 445.578 39.9531C449.891 47.6719 454.016 53.875 457.953 58.5625C461.891 63.25 464.938 65.5938 467.094 65.5938Z"/>
<path d="M514.109 43.5156L514.391 28.3281C514.391 25.2656 514.328 22.5312 514.203 20.125C514.109 17.6875 513.828 16.0469 513.359 15.2031C512.922 14.3281 512.484 13.7656 512.047 13.5156C511.609 13.2344 511.172 13.0156 510.734 12.8594C510.297 12.7031 510.047 12.625 509.984 12.625C509.484 12.5 509.234 11.6719 509.234 10.1406C509.234 8.57812 509.297 7.60938 509.422 7.23438C520.297 4.82812 528.516 3.625 534.078 3.625C547.359 3.625 557.672 6.82812 565.016 13.2344C571.203 18.6094 574.297 26.1719 574.297 35.9219C574.297 43.7344 572.438 50.5625 568.719 56.4062C565 62.2188 559.875 66.6406 553.344 69.6719C546.844 72.6719 539.375 74.1719 530.938 74.1719C526.312 74.1719 521.984 73.7812 517.953 73C515.891 72.1562 514.719 70 514.438 66.5312C514.219 63.8438 514.109 59.7969 514.109 54.3906V43.5156ZM528.5 25.5625L528.031 54.0625V57.25C528.031 63.2188 528.578 66.6406 529.672 67.5156C530.797 67.7031 532 67.7969 533.281 67.7969C534.562 67.7969 536.281 67.75 538.438 67.6562C540.594 67.5312 542.891 66.8594 545.328 65.6406C547.797 64.4219 550.062 62.6719 552.125 60.3906C554.188 58.1094 555.828 55.0781 557.047 51.2969C558.266 47.4844 558.875 43.4062 558.875 39.0625C558.875 34.6875 558.375 30.9062 557.375 27.7188C556.406 24.5312 555.125 21.8906 553.531 19.7969C551.969 17.7031 550.156 15.9375 548.094 14.5C544.156 11.7812 540.109 10.4219 535.953 10.4219C531.797 10.4219 528.938 10.6406 527.375 11.0781C528.125 14.3594 528.5 18.25 528.5 22.75V25.5625Z"/>
<path d="M600.031 52.75C600.969 57.375 602.969 61.1094 606.031 63.9531C609.094 66.7969 612.672 68.2188 616.766 68.2188C620.859 68.2188 624.984 66.4531 629.141 62.9219C630.703 63.9531 631.656 65.1719 632 66.5781C629.125 69.9219 624.875 72.3125 619.25 73.75C616.969 74.3438 614.328 74.6406 611.328 74.6406C608.359 74.6406 605.281 74.0938 602.094 73C598.906 71.9375 596.047 70.375 593.516 68.3125C591.016 66.25 589.031 63.5469 587.562 60.2031C586.094 56.8281 585.359 53.0938 585.359 49C585.359 44.9062 586.109 41.2031 587.609 37.8906C589.109 34.5469 591.094 31.8125 593.562 29.6875C598.719 25.2188 604.625 22.9844 611.281 22.9844C617.125 22.9844 622.188 24.5625 626.469 27.7188C628.531 29.2812 630.172 31.3125 631.391 33.8125C632.641 36.2812 633.266 39.0781 633.266 42.2031C633.266 47.5469 631.5 50.3594 627.969 50.6406L600.031 52.75ZM620.656 40.7969C620.656 37.0781 619.625 34.1719 617.562 32.0781C615.5 29.9844 612.797 28.9375 609.453 28.9375C606.109 28.9375 603.578 30.5156 601.859 33.6719C600.141 36.7969 599.281 41.1406 599.281 46.7031C607.062 45.8594 614.094 44.9688 620.375 44.0312C620.562 42.9062 620.656 41.8281 620.656 40.7969Z"/>
<path d="M682.016 22.0469C687.891 22.0469 690.828 24.8594 690.828 30.4844C690.828 34.8281 688.547 40.7812 683.984 48.3438C678.109 58.0625 673.609 66.6406 670.484 74.0781C669.359 74.5156 668.109 74.7344 666.734 74.7344C665.359 74.7344 664.016 74.4688 662.703 73.9375C661.391 73.4062 660.484 72.8125 659.984 72.1562C659.516 71.5 658.453 69.125 656.797 65.0312C655.172 60.9375 653.453 56.6562 651.641 52.1875C649.859 47.7188 647.859 43.4062 645.641 39.25C643.422 35.0938 641.562 32.5469 640.062 31.6094C639.562 31.2969 638.062 31.0469 635.562 30.8594C635.531 30.6094 635.484 30.3438 635.422 30.0625C635.359 29.75 635.312 29.5156 635.281 29.3594C635.188 28.7031 635.188 28.1094 635.281 27.5781C639.812 25.0469 644.891 23.7812 650.516 23.7812C651.547 23.7812 652.312 23.7969 652.812 23.8281C654.094 25.1719 656.016 28.9688 658.578 35.2188C661.141 41.4375 664.312 50.6094 668.094 62.7344C674.812 43.2031 678.328 31.875 678.641 28.75C678.734 27.9688 678.781 27.0938 678.781 26.125C678.781 25.125 678.484 24.1719 677.891 23.2656C677.891 22.9844 678.344 22.7188 679.25 22.4688C680.156 22.1875 681.078 22.0469 682.016 22.0469Z"/>
<path d="M711.312 52.75C712.25 57.375 714.25 61.1094 717.312 63.9531C720.375 66.7969 723.953 68.2188 728.047 68.2188C732.141 68.2188 736.266 66.4531 740.422 62.9219C741.984 63.9531 742.938 65.1719 743.281 66.5781C740.406 69.9219 736.156 72.3125 730.531 73.75C728.25 74.3438 725.609 74.6406 722.609 74.6406C719.641 74.6406 716.562 74.0938 713.375 73C710.188 71.9375 707.328 70.375 704.797 68.3125C702.297 66.25 700.312 63.5469 698.844 60.2031C697.375 56.8281 696.641 53.0938 696.641 49C696.641 44.9062 697.391 41.2031 698.891 37.8906C700.391 34.5469 702.375 31.8125 704.844 29.6875C710 25.2188 715.906 22.9844 722.562 22.9844C728.406 22.9844 733.469 24.5625 737.75 27.7188C739.812 29.2812 741.453 31.3125 742.672 33.8125C743.922 36.2812 744.547 39.0781 744.547 42.2031C744.547 47.5469 742.781 50.3594 739.25 50.6406L711.312 52.75ZM731.938 40.7969C731.938 37.0781 730.906 34.1719 728.844 32.0781C726.781 29.9844 724.078 28.9375 720.734 28.9375C717.391 28.9375 714.859 30.5156 713.141 33.6719C711.422 36.7969 710.562 41.1406 710.562 46.7031C718.344 45.8594 725.375 44.9688 731.656 44.0312C731.844 42.9062 731.938 41.8281 731.938 40.7969Z"/>
<path d="M756.125 13.1875C755.594 10.1562 753.609 8.4375 750.172 8.03125C749.953 6.5 749.844 5.64062 749.844 5.45312C749.844 5.23438 749.859 5 749.891 4.75C755.797 2.4375 761.781 1.28125 767.844 1.28125C768.125 1.28125 768.422 1.28125 768.734 1.28125C769.391 2.125 769.828 4.09375 770.047 7.1875C770.266 10.25 770.375 17.4062 770.375 28.6562C770.375 39.875 770.203 54.6562 769.859 73C767.797 73.5938 765.328 73.8906 762.453 73.8906C759.578 73.8906 757.344 73.5625 755.75 72.9062C756.312 68.7188 756.594 60.7344 756.594 48.9531C756.594 37.1719 756.438 25.25 756.125 13.1875Z"/>
<path d="M834.969 47.5C834.969 51.5938 834.234 55.4375 832.766 59.0312C831.297 62.625 829.219 65.5625 826.531 67.8438C821.125 72.4375 813.984 74.7344 805.109 74.7344C800.672 74.7344 796.578 73.6875 792.828 71.5938C789.078 69.5 786.094 66.5781 783.875 62.8281C781.656 59.0469 780.547 54.5469 780.547 49.3281C780.547 44.0781 781.891 39.3594 784.578 35.1719C789.859 26.9219 798.719 22.7969 811.156 22.7969C817.406 22.7969 822.891 24.9375 827.609 29.2188C832.516 33.6875 834.969 39.7812 834.969 47.5ZM794.375 48.8594C794.375 54.2031 795.922 58.875 799.016 62.875C802.109 66.875 805.734 68.875 809.891 68.875C817.578 68.875 821.422 62.6094 821.422 50.0781C821.422 43.8594 820 38.8125 817.156 34.9375C814.312 31.0625 810.688 29.125 806.281 29.125C804.062 29.125 802.141 29.6875 800.516 30.8125C798.891 31.9375 797.656 33.4531 796.812 35.3594C795.188 39.0156 794.375 43.5156 794.375 48.8594Z"/>
<path d="M850.109 103.422C850.734 97.2031 851.047 86.4375 851.047 71.125C851.047 55.7812 850.609 43.8906 849.734 35.4531C849.547 32.2344 847.781 30.4844 844.438 30.2031C844.406 30.0156 844.359 29.7969 844.297 29.5469C844.266 29.2656 844.234 29.0469 844.203 28.8906C844.141 28.4531 844.109 28.0781 844.109 27.7656C844.109 27.4531 844.125 27.1719 844.156 26.9219C848.312 25.3281 851.703 24.3594 854.328 24.0156C856.953 23.6406 858.859 23.4531 860.047 23.4531C861.266 23.4531 862.016 23.4531 862.297 23.4531C863.016 24.5469 863.5 26.5625 863.75 29.5C865.906 27.5312 868.422 25.9688 871.297 24.8125C874.203 23.6562 876.906 23.0781 879.406 23.0781C881.938 23.0781 884.125 23.2812 885.969 23.6875C887.812 24.0625 889.625 24.7812 891.406 25.8438C893.219 26.875 894.781 28.2188 896.094 29.875C899.312 33.9375 900.922 39.7344 900.922 47.2656C900.922 50.8594 900.359 54.2031 899.234 57.2969C898.109 60.3906 896.625 63 894.781 65.125C892.969 67.25 890.891 69.0625 888.547 70.5625C884.016 73.4688 879.5 74.9219 875 74.9219C870.5 74.9219 866.875 74.4688 864.125 73.5625C864.125 79.4688 864.062 89.5156 863.938 103.703C861.094 104.203 858.531 104.453 856.25 104.453C854 104.453 851.953 104.109 850.109 103.422ZM863.938 34.5156C864.062 42.3281 864.125 53.3281 864.125 67.5156C866.062 68.2344 868.266 68.5938 870.734 68.5938C873.234 68.5938 875.328 68.2031 877.016 67.4219C878.703 66.6094 880.281 65.4219 881.75 63.8594C884.969 60.3906 886.578 55.1562 886.578 48.1562C886.578 40.9375 885.094 36.0625 882.125 33.5312C879.906 31.625 877.156 30.6719 873.875 30.6719C870.625 30.6719 867.312 31.9531 863.938 34.5156Z"/>
<path d="M924.688 52.75C925.625 57.375 927.625 61.1094 930.688 63.9531C933.75 66.7969 937.328 68.2188 941.422 68.2188C945.516 68.2188 949.641 66.4531 953.797 62.9219C955.359 63.9531 956.312 65.1719 956.656 66.5781C953.781 69.9219 949.531 72.3125 943.906 73.75C941.625 74.3438 938.984 74.6406 935.984 74.6406C933.016 74.6406 929.938 74.0938 926.75 73C923.562 71.9375 920.703 70.375 918.172 68.3125C915.672 66.25 913.688 63.5469 912.219 60.2031C910.75 56.8281 910.016 53.0938 910.016 49C910.016 44.9062 910.766 41.2031 912.266 37.8906C913.766 34.5469 915.75 31.8125 918.219 29.6875C923.375 25.2188 929.281 22.9844 935.938 22.9844C941.781 22.9844 946.844 24.5625 951.125 27.7188C953.188 29.2812 954.828 31.3125 956.047 33.8125C957.297 36.2812 957.922 39.0781 957.922 42.2031C957.922 47.5469 956.156 50.3594 952.625 50.6406L924.688 52.75ZM945.312 40.7969C945.312 37.0781 944.281 34.1719 942.219 32.0781C940.156 29.9844 937.453 28.9375 934.109 28.9375C930.766 28.9375 928.234 30.5156 926.516 33.6719C924.797 36.7969 923.938 41.1406 923.938 46.7031C931.719 45.8594 938.75 44.9688 945.031 44.0312C945.219 42.9062 945.312 41.8281 945.312 40.7969Z"/>
<path d="M998.516 41.5469C998.516 36.2031 997.297 33.5312 994.859 33.5312C993.078 33.5312 991.375 34.0469 989.75 35.0781C988.125 36.0781 986.375 37.4844 984.5 39.2969C984.5 42.4219 984.406 53.6875 984.219 73.0938C980.75 73.6875 977.906 73.9844 975.688 73.9844C973.5 73.9844 971.609 73.6875 970.016 73.0938C970.391 67.9062 970.578 59.0156 970.578 46.4219V35.4531C970.578 33.0781 969.75 31.6719 968.094 31.2344C966.969 30.8906 965.453 30.6406 963.547 30.4844C963.328 29.5469 963.219 28.8438 963.219 28.375C963.219 27.875 963.234 27.4844 963.266 27.2031C967.766 24.6719 973.328 23.4062 979.953 23.4062C981.047 23.4062 981.859 23.4219 982.391 23.4531C983.297 25.0156 983.828 26.6406 983.984 28.3281C984.172 30.0156 984.312 31.625 984.406 33.1562C988.594 28.0625 992.125 24.9688 995 23.875C996.375 23.3438 997.828 23.0781 999.359 23.0781C1002.48 23.0781 1004.98 23.9531 1006.86 25.7031C1008.77 27.4219 1009.72 29.9531 1009.72 33.2969C1009.72 35.8594 1008.78 38 1006.91 39.7188C1005.06 41.4062 1002.83 42.25 1000.2 42.25C999.641 42.25 999.078 42.2031 998.516 42.1094V41.5469Z"/>
</mask>
<path d="M19.9062 13C20.6875 16.6562 21.0781 20.9062 21.0781 25.75C21.0781 26.0938 21.0781 26.4219 21.0781 26.7344L20.9375 35.4531L39.3125 34.4219C39.8125 35.0156 40.0625 36.2344 40.0625 38.0781C40.0625 39.9219 39.9062 41.7344 39.5938 43.5156C37.875 43.7656 35.6406 43.8906 32.8906 43.8906C30.1406 43.8906 26.1562 43.5781 20.9375 42.9531L20.8438 56.3125C20.8438 62.4688 21.2656 68.0312 22.1094 73C19.4531 73.8125 16.2188 74.2188 12.4062 74.2188C8.625 74.2188 6.23438 73.8125 5.23438 73C6.17188 64.6562 6.64062 54.8281 6.64062 43.5156V17.875C6.64062 15.75 6.34375 14.3281 5.75 13.6094C5.1875 12.8594 4.10938 12.2344 2.51562 11.7344C2.04688 11.1094 1.8125 10.1094 1.8125 8.73438C1.8125 7.32812 1.85938 6.34375 1.95312 5.78125C4.60938 5.75 8.375 5.71875 13.25 5.6875C18.125 5.65625 21.7812 5.625 24.2188 5.59375C31 5.5 39.5156 5.25 49.7656 4.84375C50.2656 5.28125 50.5156 7.29688 50.5156 10.8906C50.5156 14.4844 50.0312 17.2031 49.0625 19.0469C48.0938 20.8906 46.2812 21.8125 43.625 21.8125C40.9688 21.8125 39.1094 20.9844 38.0469 19.3281V13.6562C28.9219 13.2188 22.875 13 19.9062 13Z" fill="white"/>
<path d="M58.4375 30.4375C56.375 30.4375 55.3438 29.5469 55.3438 27.7656C55.3438 27.2656 55.375 26.8906 55.4375 26.6406C56.5312 25.8594 59.2031 25.1094 63.4531 24.3906C67.7031 23.6406 71.1406 23.2656 73.7656 23.2656C74.7344 26.4219 75.2188 29.9688 75.2188 33.9062C75.2188 37.8438 75.0156 42.3438 74.6094 47.4062C74.2344 52.4375 74.0469 55.9844 74.0469 58.0469C74.0469 60.1094 74.3594 61.7812 74.9844 63.0625C75.6094 64.3125 76.8906 64.9375 78.8281 64.9375C80.7969 64.9375 82.8125 64.4688 84.875 63.5312C86.9688 62.5625 89.625 60.7969 92.8438 58.2344C92.8438 48.6094 92.875 37.1719 92.9375 23.9219C96.5312 23.3594 99.4219 23.0781 101.609 23.0781C103.828 23.0781 105.75 23.3594 107.375 23.9219C106.906 30.7656 106.672 37.3438 106.672 43.6562C106.672 49.9375 106.844 56.4844 107.188 63.2969C107.25 64.3281 107.453 65.125 107.797 65.6875C108.141 66.25 109.031 66.5781 110.469 66.6719C111.938 66.7656 112.953 66.9219 113.516 67.1406C113.641 67.7969 113.703 68.8594 113.703 70.3281C110.984 71.8594 108.25 72.9531 105.5 73.6094C102.75 74.2969 100.422 74.6406 98.5156 74.6406C96.6094 74.6406 95.2969 73.9375 94.5781 72.5312C93.8906 71.125 93.3438 68.3125 92.9375 64.0938C85.3125 71.125 78.0312 74.6406 71.0938 74.6406C64.1562 74.6406 60.6875 69.1406 60.6875 58.1406L61.4844 33.3438C61.4844 32.2812 61.1562 31.5312 60.5 31.0938C59.875 30.6562 59.1875 30.4375 58.4375 30.4375Z" fill="white"/>
<path d="M125 13.1875C124.469 10.1562 122.484 8.4375 119.047 8.03125C118.828 6.5 118.719 5.64062 118.719 5.45312C118.719 5.23438 118.734 5 118.766 4.75C124.672 2.4375 130.656 1.28125 136.719 1.28125C137 1.28125 137.297 1.28125 137.609 1.28125C138.266 2.125 138.703 4.09375 138.922 7.1875C139.141 10.25 139.25 17.4062 139.25 28.6562C139.25 39.875 139.078 54.6562 138.734 73C136.672 73.5938 134.203 73.8906 131.328 73.8906C128.453 73.8906 126.219 73.5625 124.625 72.9062C125.188 68.7188 125.469 60.7344 125.469 48.9531C125.469 37.1719 125.312 25.25 125 13.1875Z" fill="white"/>
<path d="M152.844 13.1875C152.312 10.1562 150.328 8.4375 146.891 8.03125C146.672 6.5 146.562 5.64062 146.562 5.45312C146.562 5.23438 146.578 5 146.609 4.75C152.516 2.4375 158.5 1.28125 164.562 1.28125C164.844 1.28125 165.141 1.28125 165.453 1.28125C166.109 2.125 166.547 4.09375 166.766 7.1875C166.984 10.25 167.094 17.4062 167.094 28.6562C167.094 39.875 166.922 54.6562 166.578 73C164.516 73.5938 162.047 73.8906 159.172 73.8906C156.297 73.8906 154.062 73.5625 152.469 72.9062C153.031 68.7188 153.312 60.7344 153.312 48.9531C153.312 37.1719 153.156 25.25 152.844 13.1875Z" fill="white"/>
<path d="M206.141 59.9688C206.141 56.3125 208.234 54.4844 212.422 54.4844C214.547 54.4844 216.641 55.0312 218.703 56.125C218.703 60.0938 219.531 63.1406 221.188 65.2656C222.844 67.3594 225.672 68.4062 229.672 68.4062C233.703 68.4062 236.656 67.6406 238.531 66.1094C240.406 64.5781 241.344 62.1406 241.344 58.7969C241.344 55.2344 239.969 52.1875 237.219 49.6562C234.969 47.5625 232.359 45.75 229.391 44.2188C226.422 42.6875 224.031 41.4375 222.219 40.4688C220.406 39.4688 218.672 38.375 217.016 37.1875C215.391 36 213.938 34.7188 212.656 33.3438C209.906 30.375 208.531 26.8281 208.531 22.7031C208.531 18.5469 209.609 15.0469 211.766 12.2031C215.984 6.64062 222.844 3.85938 232.344 3.85938C239.656 3.85938 245.234 5.375 249.078 8.40625C252.578 11.1875 254.328 14.2812 254.328 17.6875C254.328 19.2812 253.781 20.5938 252.688 21.625C251.625 22.6562 249.969 23.1719 247.719 23.1719C245.469 23.1719 243.156 22.5938 240.781 21.4375C240.781 21.2188 240.781 21.0156 240.781 20.8281C240.781 17.3594 240 14.5781 238.438 12.4844C236.906 10.3906 234.578 9.34375 231.453 9.34375C228.328 9.34375 225.844 10.2188 224 11.9688C222.188 13.7188 221.281 16.2969 221.281 19.7031C221.281 22.6406 222.719 25.2188 225.594 27.4375C227.594 29 230.219 30.5938 233.469 32.2188C236.719 33.8438 239.281 35.1719 241.156 36.2031C243.062 37.2031 244.875 38.3438 246.594 39.625C248.312 40.875 249.828 42.25 251.141 43.75C254.016 47 255.453 50.75 255.453 55C255.453 59.2188 254.312 62.7969 252.031 65.7344C249.75 68.6406 246.703 70.8594 242.891 72.3906C239.078 73.8906 235.234 74.6406 231.359 74.6406C227.516 74.6406 224.266 74.3281 221.609 73.7031C218.953 73.1094 216.703 72.3125 214.859 71.3125C213.016 70.2812 211.422 69.125 210.078 67.8438C207.453 65.3438 206.141 62.7188 206.141 59.9688Z" fill="white"/>
<path d="M291.406 63.5781C292.531 64.6094 293.172 65.6719 293.328 66.7656C289.203 72.0156 284.438 74.6406 279.031 74.6406C275.5 74.6406 273 73.2344 271.531 70.4219C270.281 67.9531 269.516 63.7188 269.234 57.7188C268.984 48.3438 268.859 39.6094 268.859 31.5156C265.672 31.3906 263.719 31.2344 263 31.0469C262.844 30.7969 262.766 29.875 262.766 28.2812C262.766 26.6875 262.844 25.8125 263 25.6562L268.953 25.0938C268.953 24.4375 269.047 21.2969 269.234 15.6719C270.797 14.0781 273.078 12.8594 276.078 12.0156C279.109 11.1406 281.797 10.7031 284.141 10.7031C283.703 14.6719 283.344 19.4688 283.062 25.0938C284.094 25.125 287.203 25.3125 292.391 25.6562C292.547 26.1875 292.625 27.2031 292.625 28.7031C292.625 30.2031 292.547 31.1094 292.391 31.4219C289.516 31.7969 286.312 32.0312 282.781 32.125C282.656 35.8438 282.594 40.5469 282.594 46.2344C282.594 51.8906 282.719 57.2344 282.969 62.2656C283.062 64.2031 284.031 65.1719 285.875 65.1719C287.75 65.1719 289.594 64.6406 291.406 63.5781Z" fill="white"/>
<path d="M346.391 46.5156L346.109 62.2656C346.109 62.4219 346.109 62.5781 346.109 62.7344C346.109 64.4531 346.922 65.3125 348.547 65.3125C349.797 65.3125 351.125 64.9062 352.531 64.0938C352.969 64.4688 353.375 65 353.75 65.6875C354.156 66.3438 354.391 66.8594 354.453 67.2344C350.578 72.1719 346.547 74.6406 342.359 74.6406C338.203 74.6406 335.297 72.5938 333.641 68.5C330.766 70.5 327.828 72.0156 324.828 73.0469C321.859 74.1094 319.297 74.6406 317.141 74.6406C315.016 74.6406 313.031 74.4062 311.188 73.9375C309.375 73.4688 307.688 72.7188 306.125 71.6875C302.75 69.5 301.062 65.8906 301.062 60.8594C301.062 58.1719 301.797 55.8281 303.266 53.8281C304.766 51.7969 306.797 50.2031 309.359 49.0469C314.266 46.8281 320.125 45.625 326.938 45.4375L332.375 45.25C332.594 42.7188 332.703 40.7188 332.703 39.25C332.703 35.9375 332.062 33.4375 330.781 31.75C329.531 30.0625 327.188 29.2188 323.75 29.2188C321.688 29.2188 320.078 29.9375 318.922 31.375C317.797 32.8125 317.234 34.9375 317.234 37.75C317.234 38.125 316.703 38.5781 315.641 39.1094C313.859 39.9531 312.078 40.375 310.297 40.375C308.547 40.375 307.141 39.875 306.078 38.875C305.047 37.875 304.531 36.4688 304.531 34.6562C304.531 32.8438 305.188 31.1406 306.5 29.5469C307.812 27.9531 309.562 26.7188 311.75 25.8438C316.094 24.125 321.047 23.2656 326.609 23.2656C332.422 23.2656 336.672 24.1875 339.359 26.0312C341.797 27.6562 343.531 29.9844 344.562 33.0156C345.781 36.5469 346.391 41.0469 346.391 46.5156ZM332.375 63.5781C331.969 61.2969 331.766 59.3281 331.766 57.6719C331.766 55.9844 331.812 53.6406 331.906 50.6406L325.391 50.9219C322.047 50.9219 319.469 51.7344 317.656 53.3594C315.844 54.9844 314.938 57.0156 314.938 59.4531C314.938 61.8906 315.469 63.6406 316.531 64.7031C317.594 65.7656 319.734 66.2969 322.953 66.2969C326.203 66.2969 329.344 65.3906 332.375 63.5781Z" fill="white"/>
<path d="M409.156 34.7031C409.156 39.4531 406.688 41.8281 401.75 41.8281C400.062 41.8281 398.844 41.6406 398.094 41.2656C397.344 40.8594 396.969 40.625 396.969 40.5625C397.062 39.9688 397.109 39.3594 397.109 38.7344C397.109 35.7969 396.156 33.4688 394.25 31.75C392.375 30 389.844 29.125 386.656 29.125C383.469 29.125 380.906 30.5 378.969 33.25C377.031 35.9688 376.062 40.2031 376.062 45.9531C376.062 51.7031 377.719 56.7812 381.031 61.1875C384.375 65.5938 388.094 67.7969 392.188 67.7969C395.719 67.7969 399.25 66.375 402.781 63.5312C403.594 62.875 404.406 62.0938 405.219 61.1875C405.906 61.625 406.609 62.25 407.328 63.0625C408.078 63.8438 408.531 64.5938 408.688 65.3125C407.219 67.2812 405 69.1719 402.031 70.9844C397.969 73.4219 393.484 74.6406 388.578 74.6406C383.672 74.6406 379.203 73.6094 375.172 71.5469C371.172 69.4844 368.016 66.5312 365.703 62.6875C363.391 58.8438 362.234 54.4688 362.234 49.5625C362.234 40.125 365.719 32.8438 372.688 27.7188C377.156 24.4375 382.594 22.7969 389 22.7969C394.406 22.7969 399.109 23.9688 403.109 26.3125C404.922 27.375 406.375 28.6406 407.469 30.1094C408.562 31.5781 409.125 33.1094 409.156 34.7031Z" fill="white"/>
<path d="M467.094 65.5938C468.344 65.5938 469.562 65.1875 470.75 64.375L472.672 67.5156C470.578 70.6719 467.875 72.875 464.562 74.125C463.188 74.6562 461.766 74.9219 460.297 74.9219C458.828 74.9219 457.391 74.5312 455.984 73.75C454.609 73 453.391 72.0312 452.328 70.8438C451.266 69.6562 450.219 68.1719 449.188 66.3906C448.188 64.6094 447.344 62.9062 446.656 61.2812C445.969 59.625 445.281 57.75 444.594 55.6562C443.75 53.1875 442.797 49.8438 441.734 45.625C439.578 48.9688 437.562 51.6875 435.688 53.7812C435.688 57.4062 435.625 63.8125 435.5 73C432.438 73.5938 429.703 73.8906 427.297 73.8906C424.922 73.8906 422.922 73.5625 421.297 72.9062C422.078 68.1875 422.469 59.375 422.469 46.4688C422.469 33.5625 422.234 22.4688 421.766 13.1875C421.516 10.1875 419.531 8.46875 415.812 8.03125C415.781 7.84375 415.734 7.5625 415.672 7.1875C415.547 6.46875 415.484 5.95312 415.484 5.64062C415.484 5.29688 415.5 5 415.531 4.75C421.375 2.4375 427.344 1.28125 433.438 1.28125C433.719 1.28125 434.016 1.28125 434.328 1.28125C435.016 2.15625 435.438 3.92188 435.594 6.57812C435.75 9.23438 435.828 14.625 435.828 22.75C435.828 30.875 435.812 38.3438 435.781 45.1562C439.25 38.6875 442.312 34.0312 444.969 31.1875C448.219 27.7188 450.953 25.5469 453.172 24.6719C455.422 23.7969 457.438 23.3594 459.219 23.3594C462.344 23.3594 464.875 24.2344 466.812 25.9844C468.781 27.7031 469.766 30.0312 469.766 32.9688C469.766 35.875 468.797 38.2031 466.859 39.9531C464.953 41.6719 462.672 42.5312 460.016 42.5312C459.453 42.5312 458.891 42.4844 458.328 42.3906C458.328 38.8281 457.641 36.3125 456.266 34.8438C455.641 34.1562 454.703 33.8125 453.453 33.8125C452.234 33.8125 451.016 34.3125 449.797 35.3125C448.578 36.2812 447.172 37.8281 445.578 39.9531C449.891 47.6719 454.016 53.875 457.953 58.5625C461.891 63.25 464.938 65.5938 467.094 65.5938Z" fill="white"/>
<path d="M514.109 43.5156L514.391 28.3281C514.391 25.2656 514.328 22.5312 514.203 20.125C514.109 17.6875 513.828 16.0469 513.359 15.2031C512.922 14.3281 512.484 13.7656 512.047 13.5156C511.609 13.2344 511.172 13.0156 510.734 12.8594C510.297 12.7031 510.047 12.625 509.984 12.625C509.484 12.5 509.234 11.6719 509.234 10.1406C509.234 8.57812 509.297 7.60938 509.422 7.23438C520.297 4.82812 528.516 3.625 534.078 3.625C547.359 3.625 557.672 6.82812 565.016 13.2344C571.203 18.6094 574.297 26.1719 574.297 35.9219C574.297 43.7344 572.438 50.5625 568.719 56.4062C565 62.2188 559.875 66.6406 553.344 69.6719C546.844 72.6719 539.375 74.1719 530.938 74.1719C526.312 74.1719 521.984 73.7812 517.953 73C515.891 72.1562 514.719 70 514.438 66.5312C514.219 63.8438 514.109 59.7969 514.109 54.3906V43.5156ZM528.5 25.5625L528.031 54.0625V57.25C528.031 63.2188 528.578 66.6406 529.672 67.5156C530.797 67.7031 532 67.7969 533.281 67.7969C534.562 67.7969 536.281 67.75 538.438 67.6562C540.594 67.5312 542.891 66.8594 545.328 65.6406C547.797 64.4219 550.062 62.6719 552.125 60.3906C554.188 58.1094 555.828 55.0781 557.047 51.2969C558.266 47.4844 558.875 43.4062 558.875 39.0625C558.875 34.6875 558.375 30.9062 557.375 27.7188C556.406 24.5312 555.125 21.8906 553.531 19.7969C551.969 17.7031 550.156 15.9375 548.094 14.5C544.156 11.7812 540.109 10.4219 535.953 10.4219C531.797 10.4219 528.938 10.6406 527.375 11.0781C528.125 14.3594 528.5 18.25 528.5 22.75V25.5625Z" fill="white"/>
<path d="M600.031 52.75C600.969 57.375 602.969 61.1094 606.031 63.9531C609.094 66.7969 612.672 68.2188 616.766 68.2188C620.859 68.2188 624.984 66.4531 629.141 62.9219C630.703 63.9531 631.656 65.1719 632 66.5781C629.125 69.9219 624.875 72.3125 619.25 73.75C616.969 74.3438 614.328 74.6406 611.328 74.6406C608.359 74.6406 605.281 74.0938 602.094 73C598.906 71.9375 596.047 70.375 593.516 68.3125C591.016 66.25 589.031 63.5469 587.562 60.2031C586.094 56.8281 585.359 53.0938 585.359 49C585.359 44.9062 586.109 41.2031 587.609 37.8906C589.109 34.5469 591.094 31.8125 593.562 29.6875C598.719 25.2188 604.625 22.9844 611.281 22.9844C617.125 22.9844 622.188 24.5625 626.469 27.7188C628.531 29.2812 630.172 31.3125 631.391 33.8125C632.641 36.2812 633.266 39.0781 633.266 42.2031C633.266 47.5469 631.5 50.3594 627.969 50.6406L600.031 52.75ZM620.656 40.7969C620.656 37.0781 619.625 34.1719 617.562 32.0781C615.5 29.9844 612.797 28.9375 609.453 28.9375C606.109 28.9375 603.578 30.5156 601.859 33.6719C600.141 36.7969 599.281 41.1406 599.281 46.7031C607.062 45.8594 614.094 44.9688 620.375 44.0312C620.562 42.9062 620.656 41.8281 620.656 40.7969Z" fill="white"/>
<path d="M682.016 22.0469C687.891 22.0469 690.828 24.8594 690.828 30.4844C690.828 34.8281 688.547 40.7812 683.984 48.3438C678.109 58.0625 673.609 66.6406 670.484 74.0781C669.359 74.5156 668.109 74.7344 666.734 74.7344C665.359 74.7344 664.016 74.4688 662.703 73.9375C661.391 73.4062 660.484 72.8125 659.984 72.1562C659.516 71.5 658.453 69.125 656.797 65.0312C655.172 60.9375 653.453 56.6562 651.641 52.1875C649.859 47.7188 647.859 43.4062 645.641 39.25C643.422 35.0938 641.562 32.5469 640.062 31.6094C639.562 31.2969 638.062 31.0469 635.562 30.8594C635.531 30.6094 635.484 30.3438 635.422 30.0625C635.359 29.75 635.312 29.5156 635.281 29.3594C635.188 28.7031 635.188 28.1094 635.281 27.5781C639.812 25.0469 644.891 23.7812 650.516 23.7812C651.547 23.7812 652.312 23.7969 652.812 23.8281C654.094 25.1719 656.016 28.9688 658.578 35.2188C661.141 41.4375 664.312 50.6094 668.094 62.7344C674.812 43.2031 678.328 31.875 678.641 28.75C678.734 27.9688 678.781 27.0938 678.781 26.125C678.781 25.125 678.484 24.1719 677.891 23.2656C677.891 22.9844 678.344 22.7188 679.25 22.4688C680.156 22.1875 681.078 22.0469 682.016 22.0469Z" fill="white"/>
<path d="M711.312 52.75C712.25 57.375 714.25 61.1094 717.312 63.9531C720.375 66.7969 723.953 68.2188 728.047 68.2188C732.141 68.2188 736.266 66.4531 740.422 62.9219C741.984 63.9531 742.938 65.1719 743.281 66.5781C740.406 69.9219 736.156 72.3125 730.531 73.75C728.25 74.3438 725.609 74.6406 722.609 74.6406C719.641 74.6406 716.562 74.0938 713.375 73C710.188 71.9375 707.328 70.375 704.797 68.3125C702.297 66.25 700.312 63.5469 698.844 60.2031C697.375 56.8281 696.641 53.0938 696.641 49C696.641 44.9062 697.391 41.2031 698.891 37.8906C700.391 34.5469 702.375 31.8125 704.844 29.6875C710 25.2188 715.906 22.9844 722.562 22.9844C728.406 22.9844 733.469 24.5625 737.75 27.7188C739.812 29.2812 741.453 31.3125 742.672 33.8125C743.922 36.2812 744.547 39.0781 744.547 42.2031C744.547 47.5469 742.781 50.3594 739.25 50.6406L711.312 52.75ZM731.938 40.7969C731.938 37.0781 730.906 34.1719 728.844 32.0781C726.781 29.9844 724.078 28.9375 720.734 28.9375C717.391 28.9375 714.859 30.5156 713.141 33.6719C711.422 36.7969 710.562 41.1406 710.562 46.7031C718.344 45.8594 725.375 44.9688 731.656 44.0312C731.844 42.9062 731.938 41.8281 731.938 40.7969Z" fill="white"/>
<path d="M756.125 13.1875C755.594 10.1562 753.609 8.4375 750.172 8.03125C749.953 6.5 749.844 5.64062 749.844 5.45312C749.844 5.23438 749.859 5 749.891 4.75C755.797 2.4375 761.781 1.28125 767.844 1.28125C768.125 1.28125 768.422 1.28125 768.734 1.28125C769.391 2.125 769.828 4.09375 770.047 7.1875C770.266 10.25 770.375 17.4062 770.375 28.6562C770.375 39.875 770.203 54.6562 769.859 73C767.797 73.5938 765.328 73.8906 762.453 73.8906C759.578 73.8906 757.344 73.5625 755.75 72.9062C756.312 68.7188 756.594 60.7344 756.594 48.9531C756.594 37.1719 756.438 25.25 756.125 13.1875Z" fill="white"/>
<path d="M834.969 47.5C834.969 51.5938 834.234 55.4375 832.766 59.0312C831.297 62.625 829.219 65.5625 826.531 67.8438C821.125 72.4375 813.984 74.7344 805.109 74.7344C800.672 74.7344 796.578 73.6875 792.828 71.5938C789.078 69.5 786.094 66.5781 783.875 62.8281C781.656 59.0469 780.547 54.5469 780.547 49.3281C780.547 44.0781 781.891 39.3594 784.578 35.1719C789.859 26.9219 798.719 22.7969 811.156 22.7969C817.406 22.7969 822.891 24.9375 827.609 29.2188C832.516 33.6875 834.969 39.7812 834.969 47.5ZM794.375 48.8594C794.375 54.2031 795.922 58.875 799.016 62.875C802.109 66.875 805.734 68.875 809.891 68.875C817.578 68.875 821.422 62.6094 821.422 50.0781C821.422 43.8594 820 38.8125 817.156 34.9375C814.312 31.0625 810.688 29.125 806.281 29.125C804.062 29.125 802.141 29.6875 800.516 30.8125C798.891 31.9375 797.656 33.4531 796.812 35.3594C795.188 39.0156 794.375 43.5156 794.375 48.8594Z" fill="white"/>
<path d="M850.109 103.422C850.734 97.2031 851.047 86.4375 851.047 71.125C851.047 55.7812 850.609 43.8906 849.734 35.4531C849.547 32.2344 847.781 30.4844 844.438 30.2031C844.406 30.0156 844.359 29.7969 844.297 29.5469C844.266 29.2656 844.234 29.0469 844.203 28.8906C844.141 28.4531 844.109 28.0781 844.109 27.7656C844.109 27.4531 844.125 27.1719 844.156 26.9219C848.312 25.3281 851.703 24.3594 854.328 24.0156C856.953 23.6406 858.859 23.4531 860.047 23.4531C861.266 23.4531 862.016 23.4531 862.297 23.4531C863.016 24.5469 863.5 26.5625 863.75 29.5C865.906 27.5312 868.422 25.9688 871.297 24.8125C874.203 23.6562 876.906 23.0781 879.406 23.0781C881.938 23.0781 884.125 23.2812 885.969 23.6875C887.812 24.0625 889.625 24.7812 891.406 25.8438C893.219 26.875 894.781 28.2188 896.094 29.875C899.312 33.9375 900.922 39.7344 900.922 47.2656C900.922 50.8594 900.359 54.2031 899.234 57.2969C898.109 60.3906 896.625 63 894.781 65.125C892.969 67.25 890.891 69.0625 888.547 70.5625C884.016 73.4688 879.5 74.9219 875 74.9219C870.5 74.9219 866.875 74.4688 864.125 73.5625C864.125 79.4688 864.062 89.5156 863.938 103.703C861.094 104.203 858.531 104.453 856.25 104.453C854 104.453 851.953 104.109 850.109 103.422ZM863.938 34.5156C864.062 42.3281 864.125 53.3281 864.125 67.5156C866.062 68.2344 868.266 68.5938 870.734 68.5938C873.234 68.5938 875.328 68.2031 877.016 67.4219C878.703 66.6094 880.281 65.4219 881.75 63.8594C884.969 60.3906 886.578 55.1562 886.578 48.1562C886.578 40.9375 885.094 36.0625 882.125 33.5312C879.906 31.625 877.156 30.6719 873.875 30.6719C870.625 30.6719 867.312 31.9531 863.938 34.5156Z" fill="white"/>
<path d="M924.688 52.75C925.625 57.375 927.625 61.1094 930.688 63.9531C933.75 66.7969 937.328 68.2188 941.422 68.2188C945.516 68.2188 949.641 66.4531 953.797 62.9219C955.359 63.9531 956.312 65.1719 956.656 66.5781C953.781 69.9219 949.531 72.3125 943.906 73.75C941.625 74.3438 938.984 74.6406 935.984 74.6406C933.016 74.6406 929.938 74.0938 926.75 73C923.562 71.9375 920.703 70.375 918.172 68.3125C915.672 66.25 913.688 63.5469 912.219 60.2031C910.75 56.8281 910.016 53.0938 910.016 49C910.016 44.9062 910.766 41.2031 912.266 37.8906C913.766 34.5469 915.75 31.8125 918.219 29.6875C923.375 25.2188 929.281 22.9844 935.938 22.9844C941.781 22.9844 946.844 24.5625 951.125 27.7188C953.188 29.2812 954.828 31.3125 956.047 33.8125C957.297 36.2812 957.922 39.0781 957.922 42.2031C957.922 47.5469 956.156 50.3594 952.625 50.6406L924.688 52.75ZM945.312 40.7969C945.312 37.0781 944.281 34.1719 942.219 32.0781C940.156 29.9844 937.453 28.9375 934.109 28.9375C930.766 28.9375 928.234 30.5156 926.516 33.6719C924.797 36.7969 923.938 41.1406 923.938 46.7031C931.719 45.8594 938.75 44.9688 945.031 44.0312C945.219 42.9062 945.312 41.8281 945.312 40.7969Z" fill="white"/>
<path d="M998.516 41.5469C998.516 36.2031 997.297 33.5312 994.859 33.5312C993.078 33.5312 991.375 34.0469 989.75 35.0781C988.125 36.0781 986.375 37.4844 984.5 39.2969C984.5 42.4219 984.406 53.6875 984.219 73.0938C980.75 73.6875 977.906 73.9844 975.688 73.9844C973.5 73.9844 971.609 73.6875 970.016 73.0938C970.391 67.9062 970.578 59.0156 970.578 46.4219V35.4531C970.578 33.0781 969.75 31.6719 968.094 31.2344C966.969 30.8906 965.453 30.6406 963.547 30.4844C963.328 29.5469 963.219 28.8438 963.219 28.375C963.219 27.875 963.234 27.4844 963.266 27.2031C967.766 24.6719 973.328 23.4062 979.953 23.4062C981.047 23.4062 981.859 23.4219 982.391 23.4531C983.297 25.0156 983.828 26.6406 983.984 28.3281C984.172 30.0156 984.312 31.625 984.406 33.1562C988.594 28.0625 992.125 24.9688 995 23.875C996.375 23.3438 997.828 23.0781 999.359 23.0781C1002.48 23.0781 1004.98 23.9531 1006.86 25.7031C1008.77 27.4219 1009.72 29.9531 1009.72 33.2969C1009.72 35.8594 1008.78 38 1006.91 39.7188C1005.06 41.4062 1002.83 42.25 1000.2 42.25C999.641 42.25 999.078 42.2031 998.516 42.1094V41.5469Z" fill="white"/>
<path d="M19.9062 13C20.6875 16.6562 21.0781 20.9062 21.0781 25.75C21.0781 26.0938 21.0781 26.4219 21.0781 26.7344L20.9375 35.4531L39.3125 34.4219C39.8125 35.0156 40.0625 36.2344 40.0625 38.0781C40.0625 39.9219 39.9062 41.7344 39.5938 43.5156C37.875 43.7656 35.6406 43.8906 32.8906 43.8906C30.1406 43.8906 26.1562 43.5781 20.9375 42.9531L20.8438 56.3125C20.8438 62.4688 21.2656 68.0312 22.1094 73C19.4531 73.8125 16.2188 74.2188 12.4062 74.2188C8.625 74.2188 6.23438 73.8125 5.23438 73C6.17188 64.6562 6.64062 54.8281 6.64062 43.5156V17.875C6.64062 15.75 6.34375 14.3281 5.75 13.6094C5.1875 12.8594 4.10938 12.2344 2.51562 11.7344C2.04688 11.1094 1.8125 10.1094 1.8125 8.73438C1.8125 7.32812 1.85938 6.34375 1.95312 5.78125C4.60938 5.75 8.375 5.71875 13.25 5.6875C18.125 5.65625 21.7812 5.625 24.2188 5.59375C31 5.5 39.5156 5.25 49.7656 4.84375C50.2656 5.28125 50.5156 7.29688 50.5156 10.8906C50.5156 14.4844 50.0312 17.2031 49.0625 19.0469C48.0938 20.8906 46.2812 21.8125 43.625 21.8125C40.9688 21.8125 39.1094 20.9844 38.0469 19.3281V13.6562C28.9219 13.2188 22.875 13 19.9062 13Z" stroke="white" stroke-width="2" mask="url(#path-1-outside-1_12_10)"/>
<path d="M58.4375 30.4375C56.375 30.4375 55.3438 29.5469 55.3438 27.7656C55.3438 27.2656 55.375 26.8906 55.4375 26.6406C56.5312 25.8594 59.2031 25.1094 63.4531 24.3906C67.7031 23.6406 71.1406 23.2656 73.7656 23.2656C74.7344 26.4219 75.2188 29.9688 75.2188 33.9062C75.2188 37.8438 75.0156 42.3438 74.6094 47.4062C74.2344 52.4375 74.0469 55.9844 74.0469 58.0469C74.0469 60.1094 74.3594 61.7812 74.9844 63.0625C75.6094 64.3125 76.8906 64.9375 78.8281 64.9375C80.7969 64.9375 82.8125 64.4688 84.875 63.5312C86.9688 62.5625 89.625 60.7969 92.8438 58.2344C92.8438 48.6094 92.875 37.1719 92.9375 23.9219C96.5312 23.3594 99.4219 23.0781 101.609 23.0781C103.828 23.0781 105.75 23.3594 107.375 23.9219C106.906 30.7656 106.672 37.3438 106.672 43.6562C106.672 49.9375 106.844 56.4844 107.188 63.2969C107.25 64.3281 107.453 65.125 107.797 65.6875C108.141 66.25 109.031 66.5781 110.469 66.6719C111.938 66.7656 112.953 66.9219 113.516 67.1406C113.641 67.7969 113.703 68.8594 113.703 70.3281C110.984 71.8594 108.25 72.9531 105.5 73.6094C102.75 74.2969 100.422 74.6406 98.5156 74.6406C96.6094 74.6406 95.2969 73.9375 94.5781 72.5312C93.8906 71.125 93.3438 68.3125 92.9375 64.0938C85.3125 71.125 78.0312 74.6406 71.0938 74.6406C64.1562 74.6406 60.6875 69.1406 60.6875 58.1406L61.4844 33.3438C61.4844 32.2812 61.1562 31.5312 60.5 31.0938C59.875 30.6562 59.1875 30.4375 58.4375 30.4375Z" stroke="white" stroke-width="2" mask="url(#path-1-outside-1_12_10)"/>
<path d="M125 13.1875C124.469 10.1562 122.484 8.4375 119.047 8.03125C118.828 6.5 118.719 5.64062 118.719 5.45312C118.719 5.23438 118.734 5 118.766 4.75C124.672 2.4375 130.656 1.28125 136.719 1.28125C137 1.28125 137.297 1.28125 137.609 1.28125C138.266 2.125 138.703 4.09375 138.922 7.1875C139.141 10.25 139.25 17.4062 139.25 28.6562C139.25 39.875 139.078 54.6562 138.734 73C136.672 73.5938 134.203 73.8906 131.328 73.8906C128.453 73.8906 126.219 73.5625 124.625 72.9062C125.188 68.7188 125.469 60.7344 125.469 48.9531C125.469 37.1719 125.312 25.25 125 13.1875Z" stroke="white" stroke-width="2" mask="url(#path-1-outside-1_12_10)"/>
<path d="M152.844 13.1875C152.312 10.1562 150.328 8.4375 146.891 8.03125C146.672 6.5 146.562 5.64062 146.562 5.45312C146.562 5.23438 146.578 5 146.609 4.75C152.516 2.4375 158.5 1.28125 164.562 1.28125C164.844 1.28125 165.141 1.28125 165.453 1.28125C166.109 2.125 166.547 4.09375 166.766 7.1875C166.984 10.25 167.094 17.4062 167.094 28.6562C167.094 39.875 166.922 54.6562 166.578 73C164.516 73.5938 162.047 73.8906 159.172 73.8906C156.297 73.8906 154.062 73.5625 152.469 72.9062C153.031 68.7188 153.312 60.7344 153.312 48.9531C153.312 37.1719 153.156 25.25 152.844 13.1875Z" stroke="white" stroke-width="2" mask="url(#path-1-outside-1_12_10)"/>
<path d="M206.141 59.9688C206.141 56.3125 208.234 54.4844 212.422 54.4844C214.547 54.4844 216.641 55.0312 218.703 56.125C218.703 60.0938 219.531 63.1406 221.188 65.2656C222.844 67.3594 225.672 68.4062 229.672 68.4062C233.703 68.4062 236.656 67.6406 238.531 66.1094C240.406 64.5781 241.344 62.1406 241.344 58.7969C241.344 55.2344 239.969 52.1875 237.219 49.6562C234.969 47.5625 232.359 45.75 229.391 44.2188C226.422 42.6875 224.031 41.4375 222.219 40.4688C220.406 39.4688 218.672 38.375 217.016 37.1875C215.391 36 213.938 34.7188 212.656 33.3438C209.906 30.375 208.531 26.8281 208.531 22.7031C208.531 18.5469 209.609 15.0469 211.766 12.2031C215.984 6.64062 222.844 3.85938 232.344 3.85938C239.656 3.85938 245.234 5.375 249.078 8.40625C252.578 11.1875 254.328 14.2812 254.328 17.6875C254.328 19.2812 253.781 20.5938 252.688 21.625C251.625 22.6562 249.969 23.1719 247.719 23.1719C245.469 23.1719 243.156 22.5938 240.781 21.4375C240.781 21.2188 240.781 21.0156 240.781 20.8281C240.781 17.3594 240 14.5781 238.438 12.4844C236.906 10.3906 234.578 9.34375 231.453 9.34375C228.328 9.34375 225.844 10.2188 224 11.9688C222.188 13.7188 221.281 16.2969 221.281 19.7031C221.281 22.6406 222.719 25.2188 225.594 27.4375C227.594 29 230.219 30.5938 233.469 32.2188C236.719 33.8438 239.281 35.1719 241.156 36.2031C243.062 37.2031 244.875 38.3438 246.594 39.625C248.312 40.875 249.828 42.25 251.141 43.75C254.016 47 255.453 50.75 255.453 55C255.453 59.2188 254.312 62.7969 252.031 65.7344C249.75 68.6406 246.703 70.8594 242.891 72.3906C239.078 73.8906 235.234 74.6406 231.359 74.6406C227.516 74.6406 224.266 74.3281 221.609 73.7031C218.953 73.1094 216.703 72.3125 214.859 71.3125C213.016 70.2812 211.422 69.125 210.078 67.8438C207.453 65.3438 206.141 62.7188 206.141 59.9688Z" stroke="white" stroke-width="2" mask="url(#path-1-outside-1_12_10)"/>
<path d="M291.406 63.5781C292.531 64.6094 293.172 65.6719 293.328 66.7656C289.203 72.0156 284.438 74.6406 279.031 74.6406C275.5 74.6406 273 73.2344 271.531 70.4219C270.281 67.9531 269.516 63.7188 269.234 57.7188C268.984 48.3438 268.859 39.6094 268.859 31.5156C265.672 31.3906 263.719 31.2344 263 31.0469C262.844 30.7969 262.766 29.875 262.766 28.2812C262.766 26.6875 262.844 25.8125 263 25.6562L268.953 25.0938C268.953 24.4375 269.047 21.2969 269.234 15.6719C270.797 14.0781 273.078 12.8594 276.078 12.0156C279.109 11.1406 281.797 10.7031 284.141 10.7031C283.703 14.6719 283.344 19.4688 283.062 25.0938C284.094 25.125 287.203 25.3125 292.391 25.6562C292.547 26.1875 292.625 27.2031 292.625 28.7031C292.625 30.2031 292.547 31.1094 292.391 31.4219C289.516 31.7969 286.312 32.0312 282.781 32.125C282.656 35.8438 282.594 40.5469 282.594 46.2344C282.594 51.8906 282.719 57.2344 282.969 62.2656C283.062 64.2031 284.031 65.1719 285.875 65.1719C287.75 65.1719 289.594 64.6406 291.406 63.5781Z" stroke="white" stroke-width="2" mask="url(#path-1-outside-1_12_10)"/>
<path d="M346.391 46.5156L346.109 62.2656C346.109 62.4219 346.109 62.5781 346.109 62.7344C346.109 64.4531 346.922 65.3125 348.547 65.3125C349.797 65.3125 351.125 64.9062 352.531 64.0938C352.969 64.4688 353.375 65 353.75 65.6875C354.156 66.3438 354.391 66.8594 354.453 67.2344C350.578 72.1719 346.547 74.6406 342.359 74.6406C338.203 74.6406 335.297 72.5938 333.641 68.5C330.766 70.5 327.828 72.0156 324.828 73.0469C321.859 74.1094 319.297 74.6406 317.141 74.6406C315.016 74.6406 313.031 74.4062 311.188 73.9375C309.375 73.4688 307.688 72.7188 306.125 71.6875C302.75 69.5 301.062 65.8906 301.062 60.8594C301.062 58.1719 301.797 55.8281 303.266 53.8281C304.766 51.7969 306.797 50.2031 309.359 49.0469C314.266 46.8281 320.125 45.625 326.938 45.4375L332.375 45.25C332.594 42.7188 332.703 40.7188 332.703 39.25C332.703 35.9375 332.062 33.4375 330.781 31.75C329.531 30.0625 327.188 29.2188 323.75 29.2188C321.688 29.2188 320.078 29.9375 318.922 31.375C317.797 32.8125 317.234 34.9375 317.234 37.75C317.234 38.125 316.703 38.5781 315.641 39.1094C313.859 39.9531 312.078 40.375 310.297 40.375C308.547 40.375 307.141 39.875 306.078 38.875C305.047 37.875 304.531 36.4688 304.531 34.6562C304.531 32.8438 305.188 31.1406 306.5 29.5469C307.812 27.9531 309.562 26.7188 311.75 25.8438C316.094 24.125 321.047 23.2656 326.609 23.2656C332.422 23.2656 336.672 24.1875 339.359 26.0312C341.797 27.6562 343.531 29.9844 344.562 33.0156C345.781 36.5469 346.391 41.0469 346.391 46.5156ZM332.375 63.5781C331.969 61.2969 331.766 59.3281 331.766 57.6719C331.766 55.9844 331.812 53.6406 331.906 50.6406L325.391 50.9219C322.047 50.9219 319.469 51.7344 317.656 53.3594C315.844 54.9844 314.938 57.0156 314.938 59.4531C314.938 61.8906 315.469 63.6406 316.531 64.7031C317.594 65.7656 319.734 66.2969 322.953 66.2969C326.203 66.2969 329.344 65.3906 332.375 63.5781Z" stroke="white" stroke-width="2" mask="url(#path-1-outside-1_12_10)"/>
<path d="M409.156 34.7031C409.156 39.4531 406.688 41.8281 401.75 41.8281C400.062 41.8281 398.844 41.6406 398.094 41.2656C397.344 40.8594 396.969 40.625 396.969 40.5625C397.062 39.9688 397.109 39.3594 397.109 38.7344C397.109 35.7969 396.156 33.4688 394.25 31.75C392.375 30 389.844 29.125 386.656 29.125C383.469 29.125 380.906 30.5 378.969 33.25C377.031 35.9688 376.062 40.2031 376.062 45.9531C376.062 51.7031 377.719 56.7812 381.031 61.1875C384.375 65.5938 388.094 67.7969 392.188 67.7969C395.719 67.7969 399.25 66.375 402.781 63.5312C403.594 62.875 404.406 62.0938 405.219 61.1875C405.906 61.625 406.609 62.25 407.328 63.0625C408.078 63.8438 408.531 64.5938 408.688 65.3125C407.219 67.2812 405 69.1719 402.031 70.9844C397.969 73.4219 393.484 74.6406 388.578 74.6406C383.672 74.6406 379.203 73.6094 375.172 71.5469C371.172 69.4844 368.016 66.5312 365.703 62.6875C363.391 58.8438 362.234 54.4688 362.234 49.5625C362.234 40.125 365.719 32.8438 372.688 27.7188C377.156 24.4375 382.594 22.7969 389 22.7969C394.406 22.7969 399.109 23.9688 403.109 26.3125C404.922 27.375 406.375 28.6406 407.469 30.1094C408.562 31.5781 409.125 33.1094 409.156 34.7031Z" stroke="white" stroke-width="2" mask="url(#path-1-outside-1_12_10)"/>
<path d="M467.094 65.5938C468.344 65.5938 469.562 65.1875 470.75 64.375L472.672 67.5156C470.578 70.6719 467.875 72.875 464.562 74.125C463.188 74.6562 461.766 74.9219 460.297 74.9219C458.828 74.9219 457.391 74.5312 455.984 73.75C454.609 73 453.391 72.0312 452.328 70.8438C451.266 69.6562 450.219 68.1719 449.188 66.3906C448.188 64.6094 447.344 62.9062 446.656 61.2812C445.969 59.625 445.281 57.75 444.594 55.6562C443.75 53.1875 442.797 49.8438 441.734 45.625C439.578 48.9688 437.562 51.6875 435.688 53.7812C435.688 57.4062 435.625 63.8125 435.5 73C432.438 73.5938 429.703 73.8906 427.297 73.8906C424.922 73.8906 422.922 73.5625 421.297 72.9062C422.078 68.1875 422.469 59.375 422.469 46.4688C422.469 33.5625 422.234 22.4688 421.766 13.1875C421.516 10.1875 419.531 8.46875 415.812 8.03125C415.781 7.84375 415.734 7.5625 415.672 7.1875C415.547 6.46875 415.484 5.95312 415.484 5.64062C415.484 5.29688 415.5 5 415.531 4.75C421.375 2.4375 427.344 1.28125 433.438 1.28125C433.719 1.28125 434.016 1.28125 434.328 1.28125C435.016 2.15625 435.438 3.92188 435.594 6.57812C435.75 9.23438 435.828 14.625 435.828 22.75C435.828 30.875 435.812 38.3438 435.781 45.1562C439.25 38.6875 442.312 34.0312 444.969 31.1875C448.219 27.7188 450.953 25.5469 453.172 24.6719C455.422 23.7969 457.438 23.3594 459.219 23.3594C462.344 23.3594 464.875 24.2344 466.812 25.9844C468.781 27.7031 469.766 30.0312 469.766 32.9688C469.766 35.875 468.797 38.2031 466.859 39.9531C464.953 41.6719 462.672 42.5312 460.016 42.5312C459.453 42.5312 458.891 42.4844 458.328 42.3906C458.328 38.8281 457.641 36.3125 456.266 34.8438C455.641 34.1562 454.703 33.8125 453.453 33.8125C452.234 33.8125 451.016 34.3125 449.797 35.3125C448.578 36.2812 447.172 37.8281 445.578 39.9531C449.891 47.6719 454.016 53.875 457.953 58.5625C461.891 63.25 464.938 65.5938 467.094 65.5938Z" stroke="white" stroke-width="2" mask="url(#path-1-outside-1_12_10)"/>
<path d="M514.109 43.5156L514.391 28.3281C514.391 25.2656 514.328 22.5312 514.203 20.125C514.109 17.6875 513.828 16.0469 513.359 15.2031C512.922 14.3281 512.484 13.7656 512.047 13.5156C511.609 13.2344 511.172 13.0156 510.734 12.8594C510.297 12.7031 510.047 12.625 509.984 12.625C509.484 12.5 509.234 11.6719 509.234 10.1406C509.234 8.57812 509.297 7.60938 509.422 7.23438C520.297 4.82812 528.516 3.625 534.078 3.625C547.359 3.625 557.672 6.82812 565.016 13.2344C571.203 18.6094 574.297 26.1719 574.297 35.9219C574.297 43.7344 572.438 50.5625 568.719 56.4062C565 62.2188 559.875 66.6406 553.344 69.6719C546.844 72.6719 539.375 74.1719 530.938 74.1719C526.312 74.1719 521.984 73.7812 517.953 73C515.891 72.1562 514.719 70 514.438 66.5312C514.219 63.8438 514.109 59.7969 514.109 54.3906V43.5156ZM528.5 25.5625L528.031 54.0625V57.25C528.031 63.2188 528.578 66.6406 529.672 67.5156C530.797 67.7031 532 67.7969 533.281 67.7969C534.562 67.7969 536.281 67.75 538.438 67.6562C540.594 67.5312 542.891 66.8594 545.328 65.6406C547.797 64.4219 550.062 62.6719 552.125 60.3906C554.188 58.1094 555.828 55.0781 557.047 51.2969C558.266 47.4844 558.875 43.4062 558.875 39.0625C558.875 34.6875 558.375 30.9062 557.375 27.7188C556.406 24.5312 555.125 21.8906 553.531 19.7969C551.969 17.7031 550.156 15.9375 548.094 14.5C544.156 11.7812 540.109 10.4219 535.953 10.4219C531.797 10.4219 528.938 10.6406 527.375 11.0781C528.125 14.3594 528.5 18.25 528.5 22.75V25.5625Z" stroke="white" stroke-width="2" mask="url(#path-1-outside-1_12_10)"/>
<path d="M600.031 52.75C600.969 57.375 602.969 61.1094 606.031 63.9531C609.094 66.7969 612.672 68.2188 616.766 68.2188C620.859 68.2188 624.984 66.4531 629.141 62.9219C630.703 63.9531 631.656 65.1719 632 66.5781C629.125 69.9219 624.875 72.3125 619.25 73.75C616.969 74.3438 614.328 74.6406 611.328 74.6406C608.359 74.6406 605.281 74.0938 602.094 73C598.906 71.9375 596.047 70.375 593.516 68.3125C591.016 66.25 589.031 63.5469 587.562 60.2031C586.094 56.8281 585.359 53.0938 585.359 49C585.359 44.9062 586.109 41.2031 587.609 37.8906C589.109 34.5469 591.094 31.8125 593.562 29.6875C598.719 25.2188 604.625 22.9844 611.281 22.9844C617.125 22.9844 622.188 24.5625 626.469 27.7188C628.531 29.2812 630.172 31.3125 631.391 33.8125C632.641 36.2812 633.266 39.0781 633.266 42.2031C633.266 47.5469 631.5 50.3594 627.969 50.6406L600.031 52.75ZM620.656 40.7969C620.656 37.0781 619.625 34.1719 617.562 32.0781C615.5 29.9844 612.797 28.9375 609.453 28.9375C606.109 28.9375 603.578 30.5156 601.859 33.6719C600.141 36.7969 599.281 41.1406 599.281 46.7031C607.062 45.8594 614.094 44.9688 620.375 44.0312C620.562 42.9062 620.656 41.8281 620.656 40.7969Z" stroke="white" stroke-width="2" mask="url(#path-1-outside-1_12_10)"/>
<path d="M682.016 22.0469C687.891 22.0469 690.828 24.8594 690.828 30.4844C690.828 34.8281 688.547 40.7812 683.984 48.3438C678.109 58.0625 673.609 66.6406 670.484 74.0781C669.359 74.5156 668.109 74.7344 666.734 74.7344C665.359 74.7344 664.016 74.4688 662.703 73.9375C661.391 73.4062 660.484 72.8125 659.984 72.1562C659.516 71.5 658.453 69.125 656.797 65.0312C655.172 60.9375 653.453 56.6562 651.641 52.1875C649.859 47.7188 647.859 43.4062 645.641 39.25C643.422 35.0938 641.562 32.5469 640.062 31.6094C639.562 31.2969 638.062 31.0469 635.562 30.8594C635.531 30.6094 635.484 30.3438 635.422 30.0625C635.359 29.75 635.312 29.5156 635.281 29.3594C635.188 28.7031 635.188 28.1094 635.281 27.5781C639.812 25.0469 644.891 23.7812 650.516 23.7812C651.547 23.7812 652.312 23.7969 652.812 23.8281C654.094 25.1719 656.016 28.9688 658.578 35.2188C661.141 41.4375 664.312 50.6094 668.094 62.7344C674.812 43.2031 678.328 31.875 678.641 28.75C678.734 27.9688 678.781 27.0938 678.781 26.125C678.781 25.125 678.484 24.1719 677.891 23.2656C677.891 22.9844 678.344 22.7188 679.25 22.4688C680.156 22.1875 681.078 22.0469 682.016 22.0469Z" stroke="white" stroke-width="2" mask="url(#path-1-outside-1_12_10)"/>
<path d="M711.312 52.75C712.25 57.375 714.25 61.1094 717.312 63.9531C720.375 66.7969 723.953 68.2188 728.047 68.2188C732.141 68.2188 736.266 66.4531 740.422 62.9219C741.984 63.9531 742.938 65.1719 743.281 66.5781C740.406 69.9219 736.156 72.3125 730.531 73.75C728.25 74.3438 725.609 74.6406 722.609 74.6406C719.641 74.6406 716.562 74.0938 713.375 73C710.188 71.9375 707.328 70.375 704.797 68.3125C702.297 66.25 700.312 63.5469 698.844 60.2031C697.375 56.8281 696.641 53.0938 696.641 49C696.641 44.9062 697.391 41.2031 698.891 37.8906C700.391 34.5469 702.375 31.8125 704.844 29.6875C710 25.2188 715.906 22.9844 722.562 22.9844C728.406 22.9844 733.469 24.5625 737.75 27.7188C739.812 29.2812 741.453 31.3125 742.672 33.8125C743.922 36.2812 744.547 39.0781 744.547 42.2031C744.547 47.5469 742.781 50.3594 739.25 50.6406L711.312 52.75ZM731.938 40.7969C731.938 37.0781 730.906 34.1719 728.844 32.0781C726.781 29.9844 724.078 28.9375 720.734 28.9375C717.391 28.9375 714.859 30.5156 713.141 33.6719C711.422 36.7969 710.562 41.1406 710.562 46.7031C718.344 45.8594 725.375 44.9688 731.656 44.0312C731.844 42.9062 731.938 41.8281 731.938 40.7969Z" stroke="white" stroke-width="2" mask="url(#path-1-outside-1_12_10)"/>
<path d="M756.125 13.1875C755.594 10.1562 753.609 8.4375 750.172 8.03125C749.953 6.5 749.844 5.64062 749.844 5.45312C749.844 5.23438 749.859 5 749.891 4.75C755.797 2.4375 761.781 1.28125 767.844 1.28125C768.125 1.28125 768.422 1.28125 768.734 1.28125C769.391 2.125 769.828 4.09375 770.047 7.1875C770.266 10.25 770.375 17.4062 770.375 28.6562C770.375 39.875 770.203 54.6562 769.859 73C767.797 73.5938 765.328 73.8906 762.453 73.8906C759.578 73.8906 757.344 73.5625 755.75 72.9062C756.312 68.7188 756.594 60.7344 756.594 48.9531C756.594 37.1719 756.438 25.25 756.125 13.1875Z" stroke="white" stroke-width="2" mask="url(#path-1-outside-1_12_10)"/>
<path d="M834.969 47.5C834.969 51.5938 834.234 55.4375 832.766 59.0312C831.297 62.625 829.219 65.5625 826.531 67.8438C821.125 72.4375 813.984 74.7344 805.109 74.7344C800.672 74.7344 796.578 73.6875 792.828 71.5938C789.078 69.5 786.094 66.5781 783.875 62.8281C781.656 59.0469 780.547 54.5469 780.547 49.3281C780.547 44.0781 781.891 39.3594 784.578 35.1719C789.859 26.9219 798.719 22.7969 811.156 22.7969C817.406 22.7969 822.891 24.9375 827.609 29.2188C832.516 33.6875 834.969 39.7812 834.969 47.5ZM794.375 48.8594C794.375 54.2031 795.922 58.875 799.016 62.875C802.109 66.875 805.734 68.875 809.891 68.875C817.578 68.875 821.422 62.6094 821.422 50.0781C821.422 43.8594 820 38.8125 817.156 34.9375C814.312 31.0625 810.688 29.125 806.281 29.125C804.062 29.125 802.141 29.6875 800.516 30.8125C798.891 31.9375 797.656 33.4531 796.812 35.3594C795.188 39.0156 794.375 43.5156 794.375 48.8594Z" stroke="white" stroke-width="2" mask="url(#path-1-outside-1_12_10)"/>
<path d="M850.109 103.422C850.734 97.2031 851.047 86.4375 851.047 71.125C851.047 55.7812 850.609 43.8906 849.734 35.4531C849.547 32.2344 847.781 30.4844 844.438 30.2031C844.406 30.0156 844.359 29.7969 844.297 29.5469C844.266 29.2656 844.234 29.0469 844.203 28.8906C844.141 28.4531 844.109 28.0781 844.109 27.7656C844.109 27.4531 844.125 27.1719 844.156 26.9219C848.312 25.3281 851.703 24.3594 854.328 24.0156C856.953 23.6406 858.859 23.4531 860.047 23.4531C861.266 23.4531 862.016 23.4531 862.297 23.4531C863.016 24.5469 863.5 26.5625 863.75 29.5C865.906 27.5312 868.422 25.9688 871.297 24.8125C874.203 23.6562 876.906 23.0781 879.406 23.0781C881.938 23.0781 884.125 23.2812 885.969 23.6875C887.812 24.0625 889.625 24.7812 891.406 25.8438C893.219 26.875 894.781 28.2188 896.094 29.875C899.312 33.9375 900.922 39.7344 900.922 47.2656C900.922 50.8594 900.359 54.2031 899.234 57.2969C898.109 60.3906 896.625 63 894.781 65.125C892.969 67.25 890.891 69.0625 888.547 70.5625C884.016 73.4688 879.5 74.9219 875 74.9219C870.5 74.9219 866.875 74.4688 864.125 73.5625C864.125 79.4688 864.062 89.5156 863.938 103.703C861.094 104.203 858.531 104.453 856.25 104.453C854 104.453 851.953 104.109 850.109 103.422ZM863.938 34.5156C864.062 42.3281 864.125 53.3281 864.125 67.5156C866.062 68.2344 868.266 68.5938 870.734 68.5938C873.234 68.5938 875.328 68.2031 877.016 67.4219C878.703 66.6094 880.281 65.4219 881.75 63.8594C884.969 60.3906 886.578 55.1562 886.578 48.1562C886.578 40.9375 885.094 36.0625 882.125 33.5312C879.906 31.625 877.156 30.6719 873.875 30.6719C870.625 30.6719 867.312 31.9531 863.938 34.5156Z" stroke="white" stroke-width="2" mask="url(#path-1-outside-1_12_10)"/>
<path d="M924.688 52.75C925.625 57.375 927.625 61.1094 930.688 63.9531C933.75 66.7969 937.328 68.2188 941.422 68.2188C945.516 68.2188 949.641 66.4531 953.797 62.9219C955.359 63.9531 956.312 65.1719 956.656 66.5781C953.781 69.9219 949.531 72.3125 943.906 73.75C941.625 74.3438 938.984 74.6406 935.984 74.6406C933.016 74.6406 929.938 74.0938 926.75 73C923.562 71.9375 920.703 70.375 918.172 68.3125C915.672 66.25 913.688 63.5469 912.219 60.2031C910.75 56.8281 910.016 53.0938 910.016 49C910.016 44.9062 910.766 41.2031 912.266 37.8906C913.766 34.5469 915.75 31.8125 918.219 29.6875C923.375 25.2188 929.281 22.9844 935.938 22.9844C941.781 22.9844 946.844 24.5625 951.125 27.7188C953.188 29.2812 954.828 31.3125 956.047 33.8125C957.297 36.2812 957.922 39.0781 957.922 42.2031C957.922 47.5469 956.156 50.3594 952.625 50.6406L924.688 52.75ZM945.312 40.7969C945.312 37.0781 944.281 34.1719 942.219 32.0781C940.156 29.9844 937.453 28.9375 934.109 28.9375C930.766 28.9375 928.234 30.5156 926.516 33.6719C924.797 36.7969 923.938 41.1406 923.938 46.7031C931.719 45.8594 938.75 44.9688 945.031 44.0312C945.219 42.9062 945.312 41.8281 945.312 40.7969Z" stroke="white" stroke-width="2" mask="url(#path-1-outside-1_12_10)"/>
<path d="M998.516 41.5469C998.516 36.2031 997.297 33.5312 994.859 33.5312C993.078 33.5312 991.375 34.0469 989.75 35.0781C988.125 36.0781 986.375 37.4844 984.5 39.2969C984.5 42.4219 984.406 53.6875 984.219 73.0938C980.75 73.6875 977.906 73.9844 975.688 73.9844C973.5 73.9844 971.609 73.6875 970.016 73.0938C970.391 67.9062 970.578 59.0156 970.578 46.4219V35.4531C970.578 33.0781 969.75 31.6719 968.094 31.2344C966.969 30.8906 965.453 30.6406 963.547 30.4844C963.328 29.5469 963.219 28.8438 963.219 28.375C963.219 27.875 963.234 27.4844 963.266 27.2031C967.766 24.6719 973.328 23.4062 979.953 23.4062C981.047 23.4062 981.859 23.4219 982.391 23.4531C983.297 25.0156 983.828 26.6406 983.984 28.3281C984.172 30.0156 984.312 31.625 984.406 33.1562C988.594 28.0625 992.125 24.9688 995 23.875C996.375 23.3438 997.828 23.0781 999.359 23.0781C1002.48 23.0781 1004.98 23.9531 1006.86 25.7031C1008.77 27.4219 1009.72 29.9531 1009.72 33.2969C1009.72 35.8594 1008.78 38 1006.91 39.7188C1005.06 41.4062 1002.83 42.25 1000.2 42.25C999.641 42.25 999.078 42.2031 998.516 42.1094V41.5469Z" stroke="white" stroke-width="2" mask="url(#path-1-outside-1_12_10)"/>
</svg>

